<?xml version="1.0" encoding="utf-8"?>
<!-- Generator: Adobe Illustrator 28.1.0, SVG Export Plug-In . SVG Version: 6.00 Build 0)  -->
<svg version="1.1" id="Layer_1" xmlns="http://www.w3.org/2000/svg" xmlns:xlink="http://www.w3.org/1999/xlink" x="0px" y="0px"
	 viewBox="0 0 175.6 183" style="enable-background:new 0 0 175.6 183;" xml:space="preserve">
<g>
	<path d="M12.2,55.8L76.6,93l0,7.2L11.2,62.4l0.4,22.1l72.9,42.1l0.2-36.6L22.1,53.7C18.2,51.4,14,52.6,12.2,55.8z"/>
	<path d="M29.4,126.6c-4.1,2.3-5.2,6.7-3,10.1l26.8-15.5l6.3,3.6l-27.7,16l18.6,10.8l33.9-19.1L52,113.7
		C52,113.7,35.5,123.2,29.4,126.6z"/>
	<path d="M84.4,18.9c0.1-4.7-3.2-7.9-7.3-7.6v31l-6.2,3.6V14L52.2,24.7l-0.4,38.9L84.2,45C84.2,45,84.2,25.9,84.4,18.9z"/>
	<path d="M109.3,51.2l4.1-2.4l-3.6-2.8c-0.7-0.5-1.6-1.4-1.6-1.4s0.3,1.2,0.4,2.1L109.3,51.2z"/>
	<path d="M90.6,163.2c0,4.5,3.1,7.5,6.8,7.5V96.2l6.2-3.6v75.6l19-11.4V72.6l-32,18.7V163.2z"/>
	<path d="M161.2,89.6l-33.5-19.8l0,37.4c0,0,16.5,9.6,22.5,13.2c4,2.4,8.4,1.1,10.2-2.5l-26.8-15.5l0-7.2l27.7,16L161.2,89.6z"/>
	<path d="M154.3,39.4L89.8,76.6L83.6,73L149,35.2l-19.4-10.7L56.7,66.6l31.5,19.1L151.2,49C155.1,46.8,156.1,42.6,154.3,39.4z
		 M117.2,35l9.5,3.4l1.8-9.9l0.2-0.1l6.9,12l-1.8,1l-3.5-6.2c-0.4-0.7-0.9-1.8-0.9-1.8s-0.1,1.2-0.2,2l-0.9,5.3l-0.2,0.1L123,39
		c-0.8-0.3-1.9-0.8-1.9-0.8s0.7,1,1.1,1.7l3.5,6.2l-1.8,1l-6.9-12L117.2,35z M106.4,41.2l12.1,9l-1.9,1.1l-1.6-1.3l-5.4,3.1l0.3,2.1
		l-1.8,1l-1.8-14.9L106.4,41.2z M95.9,47.4l0.9,1.6l-5.7,3.3l2.6,4.6l5-2.9l0.9,1.6l-5,2.9l1.4,2.4l5.9-3.4l0.9,1.6l-7.8,4.5
		l-6.8-11.9L95.9,47.4z M74.9,61.6L74,60l8.9-5.1l0.9,1.6l-3.5,2l5.9,10.3l-1.8,1.1l-5.9-10.3L74.9,61.6z"/>
</g>
</svg>
