<?xml version="1.0" encoding="utf-8"?>
<!-- Generator: Adobe Illustrator 28.1.0, SVG Export Plug-In . SVG Version: 6.00 Build 0)  -->
<svg version="1.1" id="Layer_1" xmlns="http://www.w3.org/2000/svg" xmlns:xlink="http://www.w3.org/1999/xlink" x="0px" y="0px"
	 viewBox="0 0 161.4 159.1" style="enable-background:new 0 0 161.4 159.1;" xml:space="preserve">
<style type="text/css">
	.st0{fill:#414042;stroke:#FFFFFF;stroke-width:0.6905;stroke-miterlimit:10;}
	.st1{fill:#FFFFFF;}
	.st2{fill:#BE1E2D;}
	.st3{fill:#BE1E2D;stroke:#414042;stroke-width:1.1636;stroke-linecap:round;stroke-miterlimit:10;}
</style>
<g>
	<path class="st0" d="M155.5,79c0,41.4-33.6,75-75,75c-41.4,0-75-33.6-75-75c0-41.4,33.6-75,75-75C121.9,4,155.5,37.6,155.5,79z"/>
	<g>
		<path class="st1" d="M20,66.5l1.2-4.5c0.2-0.7,0-1-0.5-1.2c-0.6-0.2-0.9,0.5-1.5,1.7l-0.7,1.4c-0.7,1.4-1.3,2-2.3,1.7
			c-1-0.3-1.3-1.1-0.9-2.5l1.1-4.3l0.8,0.2l-1.1,4.2c-0.2,0.7-0.1,1.1,0.5,1.2c0.7,0.2,1-0.4,1.4-1.2l0.7-1.5
			c0.7-1.5,1.2-2.5,2.4-2.2c0.9,0.2,1.4,0.9,1,2.4l-1.3,4.8L20,66.5z"/>
		<path class="st1" d="M22.9,59l-7.6-3.1l0.5-1.2l7.6,3.1L22.9,59z M25,53.8l-3.3,2C21.5,56,21,56.2,20.7,56
			c-0.4-0.2-0.5-0.5-0.6-0.9l-0.9-3.3l0.6-1.5l1.1,4.1c0,0.2,0.1,0.4,0.3,0.4c0.2,0.1,0.5,0,0.7-0.2l3.8-2.3L25,53.8z"/>
		<path class="st1" d="M19.5,49l-1-0.5l0.6-1.2l1,0.5L19.5,49z M20.3,49.4l0.6-1.2l5.5,2.8l-0.6,1.2L20.3,49.4z"/>
		<path class="st1" d="M24.9,45.7l-1.4-0.9l0.7-1.2l1.4,0.9L24.9,45.7z"/>
		<path class="st1" d="M27.6,41.4c-1.2-0.9-1.2-2.1,0-3.8l0.5-0.7l0.6,0.5L28.4,38c-0.9,1.1-0.7,1.9,0.2,2.6l3,2.2l-0.8,1L27.6,41.4
			z"/>
		<path class="st1" d="M28,35.8l-0.8-0.7l0.9-1l0.8,0.7L28,35.8z M28.7,36.4l0.8-1l4.7,4l-0.8,1L28.7,36.4z"/>
		<path class="st1" d="M37.3,36.2c-1.9,1.9-3.2,1.6-4.6,0.2c-1.4-1.4-1.7-2.7,0.2-4.6l1.8-1.8l-1.4-1.4l0.9-0.9l5.1,5.1
			c0.4,0.4,0.5,0.9-0.2,1.6L37.3,36.2z M33.6,32.2c-1.4,1.4-1,2.2,0,3.3c1.1,1.1,1.9,1.4,3.3,0l1.2-1.2c0.3-0.3,0.3-0.5,0.1-0.7
			l-2.9-2.9L33.6,32.2z"/>
		<path class="st1" d="M43,31c-2,1.5-3.1,0.8-4.2-0.6c-1.4-1.8-1.2-3.1,1.1-4.8c1.7-1.3,3.3-1.8,4.4-0.4c0.4,0.6,0.4,1-0.3,1.6
			l-3.9,3c0.6,0.8,1.4,1.4,2.7,0.4l3.2-2.4l0.5,0.6L43,31z M43.1,26.5c0.2-0.2,0.2-0.4,0.1-0.5l0,0c-0.7-0.9-1.7-0.6-2.8,0.2
			c-1.4,1-1.6,1.9-0.8,3L43.1,26.5z"/>
		<path class="st1" d="M48,23.7l-0.8-1.5l1.2-0.7l0.8,1.5L48,23.7z"/>
		<path class="st1" d="M55.4,25.7l-1.2,0.5l-2.8-6.6c-0.3-0.6,0.1-1.1,0.9-1.4l2.3-1c2.4-1,3.6-0.3,4.3,1.5c0.8,1.8,0.6,3.2-1.9,4.2
			l-2.3,1L55.4,25.7z M54.3,23.1l2.1-0.9c1.8-0.8,1.7-1.8,1.1-3c-0.5-1.2-1.1-2-3-1.2l-1.7,0.7c-0.3,0.1-0.4,0.3-0.3,0.5L54.3,23.1z
			"/>
		<path class="st1" d="M63.9,14c1.4-0.4,2.3,0.1,2.5,1.1l0.9,3.4c0.2,0.6-0.1,1-1,1.2l-3.5,1c-1.5,0.4-2.2,0-2.6-1.3
			c-0.3-1.2,0.1-2,1.6-2.4l3.5-1l-0.2-0.7c-0.1-0.5-0.6-0.8-1.4-0.5l-3.9,1.1l-0.2-0.8L63.9,14z M62.2,17.8
			c-0.8,0.2-0.9,0.7-0.7,1.3c0.2,0.6,0.5,1,1.3,0.8l2.9-0.8c0.3-0.1,0.4-0.2,0.3-0.4l-0.5-1.8L62.2,17.8z"/>
		<path class="st1" d="M71.9,18.7c-2.7,0.4-3.5-0.6-3.8-2.6c-0.3-1.9,0.3-3.2,3-3.5l2.5-0.3l-0.3-2l1.3-0.2l1,7.1
			c0.1,0.6-0.2,1-1.1,1.1L71.9,18.7z M71.4,13.4c-2,0.3-2.2,1.1-2,2.6c0.2,1.5,0.6,2.2,2.6,2l1.7-0.2c0.4-0.1,0.5-0.2,0.5-0.5
			l-0.6-4.1L71.4,13.4z"/>
		<path class="st1" d="M80,18.2c-2.7,0-3.4-1.1-3.5-3c0-1.9,0.7-3.1,3.4-3.2l2.5,0l0-2l1.3,0l0.1,7.2c0,0.6-0.3,1-1.2,1L80,18.2z
			 M80.2,12.8c-2,0-2.3,0.9-2.3,2.3c0,1.5,0.4,2.3,2.3,2.3l1.7,0c0.4,0,0.5-0.1,0.5-0.5l-0.1-4.1L80.2,12.8z"/>
		<path class="st1" d="M85.7,10.2l1.3,0.1l-0.7,8.2L85,18.3L85.7,10.2z"/>
		<path class="st1" d="M90.2,18.9c-2.4-0.4-2.7-1.7-2.4-3.5c0.4-2.2,1.5-3,4.2-2.5c2.2,0.4,3.6,1.2,3.3,3c-0.1,0.7-0.5,1-1.4,0.9
			l-4.8-0.8c-0.2,1-0.1,2,1.5,2.3l4,0.7l-0.1,0.8L90.2,18.9z M93.6,15.9c0.3,0.1,0.4-0.1,0.4-0.2l0,0c0.2-1.2-0.7-1.7-2.1-1.9
			c-1.7-0.3-2.5,0.1-2.7,1.5L93.6,15.9z"/>
		<path class="st1" d="M99,17.6l0.5-1.6l1.3,0.4l-0.5,1.6L99,17.6z"/>
		<path class="st1" d="M105.1,23.3c-2.6-1.1-2.7-2.5-2-4.3c0.7-1.7,1.9-2.5,4.4-1.4l2.9,1.3l-0.3,0.7l-2.7-1.2
			c-1.9-0.8-2.5-0.1-3.1,1.1c-0.6,1.3-0.6,2.3,1.3,3.1l2.8,1.2l-0.3,0.7L105.1,23.3z"/>
		<path class="st1" d="M112.5,17.8l1.2,0.6l-3.9,7.2l-1.2-0.6L112.5,17.8z"/>
		<path class="st1" d="M114,20.9l1.1,0.7l-3.2,5.3l-1.1-0.7L114,20.9z M114.4,20.1l0.5-0.9l1.2,0.7l-0.5,0.9L114.4,20.1z"/>
		<path class="st1" d="M116.3,23.2c0.4-0.5,0.9-0.6,1.6,0l5.8,4.5c1.4,1.1,1.8,2.2,1,3.3l-2.6,3.3l-1-0.8l2.5-3.2
			c0.5-0.7,0.5-1.3-0.5-2.1l-1.7-1.3l-3.3,4.3l-1-0.8l3.3-4.3l-2.6-2c-0.2-0.2-0.4-0.2-0.6,0l-3.1,4l-1-0.8L116.3,23.2z"/>
		<path class="st1" d="M124,36.5c-0.7-0.7-0.9-1.3-0.3-1.8l5.3-4.8l0.9,1l-1.5,1.3l1.7,1.9c1.8,2,1.4,3.3,0,4.6
			c-1.4,1.3-2.8,1.6-4.6-0.4L124,36.5z M124.8,35.5c-0.2,0.2-0.2,0.4,0,0.7l1.2,1.3c1.3,1.5,2.2,1,3.2,0.1c1-0.9,1.5-1.7,0.2-3.2
			l-1.5-1.7L124.8,35.5z"/>
		<path class="st1" d="M132.6,41.6l1.4-1l0.8,1.1l-1.4,1L132.6,41.6z"/>
		<path class="st1" d="M135.8,45.1c1.3-0.8,2.4-0.3,3.5,1.5l0.5,0.8l-0.7,0.4l-0.3-0.6c-0.7-1.2-1.5-1.4-2.4-0.8l-3.2,1.9l-0.7-1.1
			L135.8,45.1z"/>
		<path class="st1" d="M138.4,56.9c-0.6,0.3-1.1,0.1-1.4-0.7l-1.3-2.8c-0.7-1.6-0.6-2.8,0.7-3.4l3.8-1.7l0.5,1.2l-3.7,1.6
			c-0.8,0.3-1.1,0.9-0.6,2.1l1,2.1c0.1,0.3,0.3,0.4,0.6,0.3l4.6-2.1l0.5,1.2L138.4,56.9z"/>
		<path class="st1" d="M142.9,57c0.6-0.2,1.1,0.1,1.3,0.9l0.8,2.8c0.5,1.7,0.2,2.8-1.1,3.2l-4,1.2l-0.4-1.3l3.8-1.1
			c0.8-0.2,1.2-0.8,0.9-2l-0.6-2.2c-0.1-0.3-0.2-0.4-0.5-0.4l-4.8,1.4l-0.4-1.3L142.9,57z"/>
	</g>
	<polyline class="st2" points="26.7,66.9 51.7,42 75.9,66.9 	"/>
	<polyline class="st2" points="74.9,66.9 103.7,38.1 131.7,66.9 	"/>
	<polyline class="st3" points="42.3,67.7 75.8,33.7 109.1,67.7 	"/>
	<polygon class="st1" points="75.8,36.1 88,48.3 78.6,43.7 78.8,46.7 76.5,43.7 75.8,44.8 73.9,43.4 71.7,47.8 70.6,43.6 63.6,48.3 
			"/>
	<g>
		<path class="st1" d="M31.5,117c0,0,0,0.1,0.1,0.1c0.1,0,0.1-0.1,0.1-0.1l0.9-2.5c0.1-0.3,0.4-0.3,0.5-0.3c0.1,0,0.4,0,0.5,0.3
			l0.9,2.5c0,0,0,0.1,0.1,0.1c0,0,0.1-0.1,0.1-0.1l0.9-2.7h0.7l-1.1,3.1c-0.1,0.2-0.2,0.4-0.6,0.4c-0.4,0-0.5-0.2-0.6-0.3l-0.8-2.4
			c0,0,0-0.1-0.1-0.1c0,0-0.1,0.1-0.1,0.1l-0.8,2.4c-0.1,0.2-0.2,0.3-0.6,0.3c-0.3,0-0.5-0.1-0.6-0.4l-1.1-3.1h0.7L31.5,117z"/>
		<path class="st1" d="M37.8,117c0,0,0,0.1,0.1,0.1c0.1,0,0.1-0.1,0.1-0.1l0.9-2.5c0.1-0.3,0.4-0.3,0.5-0.3c0.1,0,0.4,0,0.5,0.3
			l0.9,2.5c0,0,0,0.1,0.1,0.1c0,0,0.1-0.1,0.1-0.1l0.9-2.7h0.7l-1.1,3.1c-0.1,0.2-0.2,0.4-0.6,0.4c-0.4,0-0.5-0.2-0.6-0.3l-0.8-2.4
			c0,0,0-0.1-0.1-0.1c0,0-0.1,0.1-0.1,0.1l-0.8,2.4c-0.1,0.2-0.2,0.3-0.6,0.3c-0.3,0-0.5-0.1-0.6-0.4l-1.1-3.1h0.7L37.8,117z"/>
		<path class="st1" d="M44.1,117c0,0,0,0.1,0.1,0.1c0.1,0,0.1-0.1,0.1-0.1l0.9-2.5c0.1-0.3,0.4-0.3,0.5-0.3c0.1,0,0.4,0,0.5,0.3
			l0.9,2.5c0,0,0,0.1,0.1,0.1c0,0,0.1-0.1,0.1-0.1l0.9-2.7h0.7l-1.1,3.1c-0.1,0.2-0.2,0.4-0.6,0.4c-0.4,0-0.5-0.2-0.6-0.3l-0.8-2.4
			c0,0,0-0.1-0.1-0.1c0,0-0.1,0.1-0.1,0.1l-0.8,2.4c-0.1,0.2-0.2,0.3-0.6,0.3c-0.3,0-0.5-0.1-0.6-0.4l-1.1-3.1h0.7L44.1,117z"/>
		<path class="st1" d="M49,117.6v-0.7h0.8v0.7H49z"/>
		<path class="st1" d="M52.6,117.6v-4h-2.3v-0.5h5.5v0.5h-2.3v4H52.6z"/>
		<path class="st1" d="M57.8,114.2c0.8,0,1.1,0.4,1.1,0.9v2c0,0.3-0.2,0.5-0.7,0.5h-2c-0.8,0-1.1-0.3-1.1-1c0-0.7,0.3-1,1.1-1h2
			v-0.4c0-0.3-0.2-0.5-0.6-0.5h-2.1v-0.4H57.8z M56.5,116c-0.4,0-0.5,0.2-0.5,0.6c0,0.4,0.1,0.6,0.5,0.6h1.6c0.2,0,0.2-0.1,0.2-0.2
			v-1H56.5z"/>
		<path class="st1" d="M59.8,113.1h0.7v1.1H62c1,0,1.5,0.3,1.5,1.2v2.2h-0.7v-2.2c0-0.5-0.3-0.8-0.9-0.8h-1.4v3h-0.7V113.1z"/>
		<path class="st1" d="M68.8,115.9c0,1.3-0.7,1.8-2.3,1.8c-1.6,0-2.3-0.5-2.3-1.8c0-1.3,0.7-1.7,2.3-1.7
			C68.1,114.2,68.8,114.6,68.8,115.9z M66.5,117.2c1.1,0,1.5-0.4,1.5-1.3c0-1-0.4-1.3-1.5-1.3c-1.1,0-1.5,0.3-1.5,1.3
			C65,116.9,65.4,117.2,66.5,117.2z"/>
		<path class="st1" d="M70.9,117.6c-1.3,0-1.6-0.7-1.6-1.7c0-1.3,0.5-1.8,2-1.8c1.2,0,2,0.3,2,1.3c0,0.4-0.2,0.6-0.7,0.6H70
			c0,0.6,0.1,1.1,1,1.1h2.1v0.4H70.9z M72.4,115.7c0.2,0,0.2-0.1,0.2-0.2v0c0-0.6-0.5-0.8-1.3-0.8c-0.9,0-1.3,0.3-1.3,1H72.4z"/>
		<path class="st1" d="M74,117.1h3.2c0.4,0,0.6-0.2,0.6-0.6c0-0.2-0.1-0.5-0.6-0.6l-2.3-0.6c-0.7-0.2-1-0.5-1-1.1
			c0-0.6,0.4-1.1,1.3-1.1h3.1v0.5h-3c-0.4,0-0.7,0.2-0.7,0.6c0,0.2,0,0.5,0.5,0.6l2.2,0.6c0.8,0.2,1.2,0.4,1.2,1.1
			c0,0.6-0.3,1.1-1.2,1.1H74V117.1z"/>
		<path class="st1" d="M80.1,118.7h-0.7v-4c0-0.4,0.3-0.5,0.7-0.5h1.3c1.4,0,1.8,0.6,1.8,1.7c0,1.1-0.4,1.7-1.8,1.7h-1.3V118.7z
			 M80.1,117.2h1.2c1.1,0,1.2-0.5,1.2-1.3c0-0.7-0.1-1.3-1.2-1.3h-1c-0.2,0-0.3,0-0.3,0.2V117.2z"/>
		<path class="st1" d="M88.3,115.9c0,1.3-0.7,1.8-2.3,1.8c-1.6,0-2.3-0.5-2.3-1.8c0-1.3,0.7-1.7,2.3-1.7
			C87.6,114.2,88.3,114.6,88.3,115.9z M86,117.2c1.1,0,1.5-0.4,1.5-1.3c0-1-0.4-1.3-1.5-1.3c-1.1,0-1.5,0.3-1.5,1.3
			C84.5,116.9,84.9,117.2,86,117.2z"/>
		<path class="st1" d="M89,115.4c0-0.8,0.5-1.2,1.6-1.2h0.5v0.4h-0.4c-0.8,0-1,0.3-1,0.9v2H89V115.4z"/>
		<path class="st1" d="M93.5,117.6c-1.1,0-1.4-0.4-1.4-1.1v-1.9h-0.6v-0.4h0.6v-1.1h0.7v1.1H94v0.4h-1.2v1.8c0,0.5,0.3,0.7,0.9,0.7
			H94v0.4H93.5z"/>
		<path class="st1" d="M94.5,117.2H97c0.4,0,0.5-0.1,0.5-0.4c0-0.4-0.4-0.4-1.1-0.6l-0.8-0.2c-0.8-0.2-1.2-0.4-1.2-1
			c0-0.6,0.4-0.8,1.2-0.8H98v0.4h-2.3c-0.4,0-0.6,0.1-0.6,0.4c0,0.4,0.3,0.5,0.8,0.6l0.9,0.2c0.9,0.2,1.4,0.3,1.4,1
			c0,0.5-0.2,0.9-1.1,0.9h-2.7V117.2z"/>
		<path class="st1" d="M103.9,117.6h-0.8v-2.1h-3.4v2.1H99v-4.5h0.8v2h3.4v-2h0.8V117.6z"/>
		<path class="st1" d="M108.7,117.1c0,0.4-0.2,0.6-0.7,0.6h-1.6c-1,0-1.5-0.3-1.5-1.1v-2.3h0.7v2.2c0,0.5,0.2,0.8,0.9,0.8h1.3
			c0.2,0,0.3,0,0.3-0.2v-2.7h0.7V117.1z"/>
		<path class="st1" d="M110.3,117.6c-0.5,0-0.8-0.1-0.8-0.6v-3.9h0.7v1.1h1.3c1.4,0,1.8,0.6,1.8,1.7s-0.4,1.7-1.8,1.7H110.3z
			 M110.2,117c0,0.1,0,0.2,0.3,0.2h0.9c1.1,0,1.2-0.5,1.2-1.3c0-0.7-0.1-1.2-1.2-1.2h-1.2V117z"/>
		<path class="st1" d="M114.1,117.6v-0.7h0.8v0.7H114.1z"/>
		<path class="st1" d="M117.4,117.6c-1.5,0-1.9-0.6-1.9-1.7c0-1,0.4-1.7,1.9-1.7h1.7v0.4h-1.5c-1.1,0-1.3,0.5-1.3,1.3
			c0,0.8,0.2,1.3,1.3,1.3h1.6v0.4H117.4z"/>
		<path class="st1" d="M123.9,115.9c0,1.3-0.7,1.8-2.3,1.8c-1.6,0-2.3-0.5-2.3-1.8c0-1.3,0.7-1.7,2.3-1.7
			C123.3,114.2,123.9,114.6,123.9,115.9z M121.7,117.2c1.1,0,1.5-0.4,1.5-1.3c0-1-0.4-1.3-1.5-1.3c-1.1,0-1.5,0.3-1.5,1.3
			C120.2,116.9,120.6,117.2,121.7,117.2z"/>
		<path class="st1" d="M124.6,114.8c0-0.4,0.2-0.6,0.7-0.6h3.9c1,0,1.5,0.3,1.5,1.1v2.3H130v-2.2c0-0.5-0.2-0.8-0.9-0.8H128v3h-0.7
			v-3h-1.7c-0.2,0-0.3,0-0.3,0.2v2.7h-0.7V114.8z"/>
	</g>
	<g>
		<path class="st1" d="M30,105.6h7.4c1.1,0,1.6-0.4,1.6-1.2c0-1-1.2-1.2-3.2-1.6l-2.4-0.4c-2.5-0.5-3.6-1.2-3.6-2.8
			c0-1.6,1.2-2.4,3.5-2.4h7.1v1.3h-6.9c-1.2,0-1.7,0.3-1.7,1.2c0,1.1,1,1.3,2.4,1.6l2.6,0.5c2.6,0.5,4.3,0.8,4.3,2.8
			c0,1.5-0.7,2.5-3.2,2.5h-8V105.6z"/>
		<path class="st1" d="M44.1,110H42V98.6c0-1.1,0.9-1.5,2.1-1.5h3.9c4.2,0,5.4,1.8,5.4,4.9c0,3.1-1.2,4.9-5.4,4.9h-4V110z
			 M44.1,105.6h3.6c3.1,0,3.6-1.6,3.6-3.7c0-2.1-0.4-3.6-3.6-3.6h-2.9c-0.5,0-0.8,0.1-0.8,0.6V105.6z"/>
		<path class="st1" d="M67.4,102c0,3.7-2,5-6.7,5c-4.7,0-6.7-1.3-6.7-5c0-3.7,2-5,6.7-5C65.4,97,67.4,98.3,67.4,102z M60.7,105.7
			c3.3,0,4.5-1,4.5-3.8c0-2.8-1.2-3.7-4.5-3.7c-3.3,0-4.5,0.9-4.5,3.7C56.2,104.7,57.4,105.7,60.7,105.7z"/>
		<path class="st1" d="M68.2,100.6c0-2.4,1.6-3.5,4.8-3.5h1.4v1.3h-1.1c-2.3,0-3.1,0.9-3.1,2.7v5.9h-2.1V100.6z"/>
		<path class="st1" d="M79.7,106.9c-3.3,0-4.2-1.2-4.2-3.1v-5.4h-1.9v-1.3h1.9V94h2.1v3.1h3.7v1.3h-3.7v5.3c0,1.5,0.8,2,2.8,2h0.9
			v1.3H79.7z"/>
		<path class="st1" d="M80.7,105.6h7.4c1.1,0,1.6-0.4,1.6-1.2c0-1-1.2-1.2-3.2-1.6l-2.4-0.4c-2.5-0.5-3.6-1.2-3.6-2.8
			c0-1.6,1.2-2.4,3.5-2.4h7.1v1.3h-6.9c-1.2,0-1.7,0.3-1.7,1.2c0,1.1,1,1.3,2.4,1.6l2.6,0.5c2.6,0.5,4.3,0.8,4.3,2.8
			c0,1.5-0.7,2.5-3.2,2.5h-7.9V105.6z"/>
		<path class="st1" d="M95.9,94H98v3.1h4.5c2.9,0,4.5,0.9,4.5,3.3v6.5h-2.1v-6.3c0-1.5-0.8-2.3-2.7-2.3H98v8.5h-2.1V94z"/>
		<path class="st1" d="M119.1,105.3c0,1-0.6,1.6-2,1.6h-4.8c-2.8,0-4.4-0.9-4.4-3.2v-6.6h2.1v6.3c0,1.3,0.6,2.2,2.6,2.2h3.7
			c0.5,0,0.8-0.1,0.8-0.6v-7.9h2.1V105.3z"/>
		<path class="st1" d="M122.5,106.9c-1.5,0-2.4-0.4-2.4-1.6V94h2.1v3.1h4c4.2,0,5.4,1.8,5.4,4.8c0,3.1-1.2,5-5.4,5H122.5z
			 M122.1,105c0,0.4,0.1,0.7,0.8,0.7h2.8c3.1,0,3.6-1.6,3.6-3.7c0-2.1-0.4-3.6-3.6-3.6h-3.6V105z"/>
	</g>
	<g>
		<path class="st1" d="M35.8,92.6v-16h-9.7v-2h22.6v2H39v16H35.8z"/>
		<path class="st1" d="M51.5,76.4c0.7-1.3,1.5-2,3.3-2c1.7,0,2.6,0.7,3.3,2l9.1,16.2h-3.4l-2.7-4.9H48.4l-2.7,4.9h-3.4L51.5,76.4z
			 M49.3,85.8h10.8l-4.5-8.3c-0.2-0.4-0.4-0.9-0.9-0.9c-0.4,0-0.6,0.5-0.8,0.9L49.3,85.8z"/>
		<path class="st1" d="M86.9,92.6h-3.2v-8.2h-14v8.2h-3.2v-18h3.2v7.8h14v-7.8h3.2V92.6z"/>
		<path class="st1" d="M112,83.6c0,6.9-3.1,9.2-12,9.2c-8.8,0-12-2.3-12-9.2c0-6.9,3.2-9.2,12-9.2C108.9,74.4,112,76.7,112,83.6z
			 M100,90.9c6.8,0,8.6-1.8,8.6-7.2c0-5.4-1.8-7.2-8.6-7.2c-6.8,0-8.6,1.8-8.6,7.2C91.4,89.1,93.2,90.9,100,90.9z"/>
		<path class="st1" d="M116.5,92.6c-2.1,0-3.4-0.7-3.4-2.5V77.2c0-1.9,1.3-2.5,3.4-2.5h14.8v2H118c-1.3,0-1.6,0.3-1.6,1.2v4.7H131v2
			h-14.7v5c0,0.9,0.2,1.2,1.6,1.2h13.6v2H116.5z"/>
	</g>
</g>
</svg>
