<svg id="Layer_1" data-name="Layer 1" xmlns="http://www.w3.org/2000/svg" width="1214.76" height="569.7" viewBox="0 0 1214.76 569.7"><defs><style>.cls-1{fill:#fff;}</style></defs><title>bear-logo-skis-1.0.0</title><path d="M526.07,510.37c-1.4,5.85-6.54,8.39-8,13.08a5,5,0,0,0,.12,4.82c.51,1.13,1,2.26.13,3.43-.24,1.11-2,2.53-.24,3.26,2.07.89,4.2-2.2,6.59-.46.57,2.59-2.7,2.5-3.13,4.45,1.62,1.22,3.44,2.31,5.45,1.25,7.55-4,15.65-2.57,23.5-2.06,4,.26,7.84.81,11.7-.35,12.69-3.8,25.57-1.34,38.37-1.16,9.79.14,19.16-1.43,27.94-6,2.38-1.23,5.27-2.07,6.3-4.61,3.47-8.52,11.59-11.15,19-15.56,0,0-3.48-13.58-3.22-14.34,3.28-6.66,6.91-13.19,9.76-20,2.69-6.45,5.76-13,4.18-20.43-.63-3-1-5.95-3.17-8.23a14.21,14.21,0,0,1-3.64-9,9.62,9.62,0,0,0-1.4-4.71c-8.53-11.57-10.32-26.24-18-38.37-3.37-5.34-5.21-12.6-5.66-19.95,9.27.57,18.12.56,26.78,1.87,4.31.65,8.09-1,12.32-.73,5,.35,10-.27,14.88,1.57s10.22-1.85,14.79,1.78a25.93,25.93,0,0,0,2.52,1.57c2.76-1.36,4.12,2.9,6.84,1.68,1.53-.75,2.31-2.29,3.55-3.36.19-.27.31-.66.57-.81,4-2.27,2.76,2.41,4.1,3,2.18,1,4.11-4,4.5-3,2.94,7.61,4.34-.2,6.22-.56,2.42-.46,4.53-.63,6.61.82s.47,3,.24,4.44c-.39,2.62-.94,5.21-1.37,7.82-.93,5.72-3.29,11.29-.8,17.31.82,2,.37,4.63,0,6.9-2.28,14.94.66,29.38,3.56,43.91,1,5.13.84,10.56.68,15.84a68.27,68.27,0,0,0,2.35,19.68,11,11,0,0,1-.59,7.47c-1.77,4.68-4.19,7.13-10,7.69-15.19,1.45-31.43,4.5-46.5,7.69-4.25.9-1.91,9.64-6,8l-11.81-4.35c2,1.18.18,3,.45,4.48-.29.33-.58.66-.86,1a33.56,33.56,0,0,1-9.51,4.44v0a7.81,7.81,0,0,1-2.2,2,4.79,4.79,0,0,0-1.79.42,5.38,5.38,0,0,0-1.65,1.64c-.1.68-.2,1.37-.29,2,.66,1.83,1.41.35,2.13.06.64.65-3.11,19.61-2.48,20.26-.1,4.76,8.69-3.64,10-1,.28.56,2.9,3.49,3,4,.19.92-6.22,1-6,0,.73-1,10.93.38,12,0,1.54.8,4.26-5,4-3-.22,1.68,4.88,1.41,8,1,8.23-1.07,4.3-6.24,11.44-3.4,9,3.6,17.84,4.21,27,3.14,3.64-.43,7-1.18,10.72-.33s7.6,0,11.56-1c8.21-2.16,16.68-2.76,25.32-2.75,13.12,0,26.45,0,39-5.26,2.46-1,3.35-3.23,4.16-5.34,3.53-9.23,11-15.72,16.28-23.65,4.9-7.3,24.34-23,22.91-25-1.89-2.57.45-4.35,2.38-5.55,4.34-2.69,6.47-8.58,12.73-8.57,1.94,0,2-2.39,2.93-3.64a22.31,22.31,0,0,1,10.3-6.79,7.14,7.14,0,0,0,4.37-3.8c2.1-3.83,18.25-21.32,21.27-21.48,8.64-.46,13.41-7,18.72-11.9a104.29,104.29,0,0,1,17.06-12.64c4.47-2.73,5.13-1.39,7.13,3.33,4.83,11.39,9.77,23.45,20.13,31,11.82,8.63,23.72,17.18,39,19.86,6.44,1.12,12.5,5.43,19.37,6.95a98.89,98.89,0,0,0,17.73,1.87c10.29.4,20.4,1.61,27.5,11.08,2.85,3.81,2.45,6.5.06,9.53a17.35,17.35,0,0,1-13,6.46c-9,.55-17.51,3-26.22,5.27l-17.66,11.72c-1.29,3.91-5.7,4.29-6.68,7.66-1.06,2.47-9.49,17.8-7.45,17.2,1.67.51,4.48,1.39,1,7-1.31,2.12,1.76-7,2-4,3.58.42,9.12-4.11,13-2-.45,1.62,4.42.46,4,2,.4,1,9.53.17,10,0,7.33-2.67,8-.13,15,2,6.7,2,10.14-2.48,17.4-3.72a81.12,81.12,0,0,1,25.88,0c7.46,1.17,12.76-2,18.48-5.1a31.58,31.58,0,0,0,7.22-5.29c7-7,16.07-8.79,25.29-10l8.29-14.23c2.45-7.26,1.56-14.76,1-22.36-1.77-22.35-13.27-40.23-25.91-57.59a51.29,51.29,0,0,1-7.73-14.89c-8.34-26.61-11.71-54.1-14.25-81.71-1.21-13.07.32-26.51-6.17-38.76-.89-1.67-.87-3.88-1-5.86-.61-7.26-3.61-14-4.23-21.35-.44-5.31-4.42-10.09-6.21-15.52-3.22-9.75-3.73-20.36-9.12-29.41-1.74-2.93-.12-5,1.84-7,4.87-4.93,4.7-11.38,3.07-16.93-3.74-12.78-10.5-24.5-18-35.21-8.88-12.65-19.82-23.91-30.38-35.29-9.86-10.61-18.8-21.93-29.32-32.12-13.65-13.23-28-24.78-44.7-33.48-24.55-12.79-50-23.34-76.15-32.68a149.93,149.93,0,0,0-33.72-7.58,109,109,0,0,1-15.73-2.51c-15-4.06-30.27-4.24-45.49-2.85-18.16,1.65-36.4,2.18-54.33,6.77-17.36,4.45-35.33,6.41-52.88,10.19a229.16,229.16,0,0,1-68.32,4.43c-13.74-1.19-27.64-2.46-40-10.24-3.59-2.26-6.57-5.43-10.22-7.13-10-4.66-19.1-11.66-30.64-12.57-3.3-5.08-9.65-2.1-13.36-4.74C508.12,8.69,501,9.05,494,7.83c-10.21-1.79-20.34.51-30.52-.09-3.29-.19-6.36-1.88-9.51-1.32-13.22,2.34-26.47,4.65-39.58,7.55-16.75,3.71-31.85,11.35-46.08,20.78C358,41.58,348.16,49.2,337.31,55c-11,5.95-22,12.12-33.09,17.91-4,2.08-9.06,1.38-13.14,3.77-16.46,9.64-34.68,15.93-50.54,26.77-8.94,6.1-18.49,11.36-25.66,19.68a18.26,18.26,0,0,1-9.94,6.27c-4.61,1-4.48-4.11-6.68-6.25-9.09-8.84-20-8.4-28.2,1.76-2.91,3.59-5.71,7.45-7.14,11.94-1.94,6.07-6,8.54-12.15,10.11-5.86,1.5-10.32.75-14.84-2.77-3.13-2.43-6.35-4.76-9.66-7-5.61-3.72-9.51-3.31-13.92,1.87a42.48,42.48,0,0,0-10.2,32.28c.48,5.29-.7,8.77-4.2,12.39-4.83,5-9.76,9.95-13.19,16.12-6.47,11.61-13,23.17-19.5,34.77-2.19,3.91-2.4,7.85,1.39,10.76,2.78,2.12,2.56,4.47,3,7.57,1.16,9-3.17,15.46-8.27,21.62-11.67,14.09-23.71,27.87-35.43,41.91a24.11,24.11,0,0,1-7.42,6.34c-3,1.61-7.71,3-7.22,7.28s4.41,6.35,8.29,7.81c1.49.57,3,1.11,4.49,1.67-.56,3.82,1.64,6,4.65,7.74a47.45,47.45,0,0,0,23.55,6.87A16.75,16.75,0,0,1,64,358.57c1.56,1.41,2.86,3.75,5.61,3,1.71-2.36-2.74-6.56,2.07-7.52,8.57-1.71,14.41-8,21.51-12.12,2.15-1.25,4.24-3.54,7.23-.91-1.24,6-4.86,10.61-9.18,14.8-3.48,3.4-4.89,7.11-1,11.23.88.94,1.95,1.88-.11,3.12-3.15,1.22-6.4-7.57-9.91-.31a1.27,1.27,0,0,0-2.18,0c.15,2,.78,3.8.42,5.89-2,11.31,2,16.57,13.45,18,2.63.34,5.24.8,7.84,1.26,8.53,1.5,16.71.36,23.7-4.73a84.74,84.74,0,0,1,17.18-9.43c13.58-5.69,27.35-5.29,39.57,4.21,2.86,2.23,6.18,4.89,3.31,12,4.59-4.17,7.94-4.09,10.92-5.24,1.21-1.67.53-4.58,3.39-5.17,1.19-.68,1.65-1.92,2.32-3l2-2c1.71-5.1,5.78-4.92,10-4.45,2-2.88,1-7.2,4.5-9.38a7.63,7.63,0,0,0-.61-1.72c-.5-2.08-.09-3.21,2.34-2.3l.19-.16a1.49,1.49,0,0,0,2.16.52c1.6-1.54.67-5.25,4.32-5-.7-5.2,2-1.94,3.54-1.44l.77.07.77-.11a3.87,3.87,0,0,0,2-2.53,14.76,14.76,0,0,0,.15-3.32c.39-1.41-1.75-4.11,1.95-3.84,3,.21,2.89,5.4,6.75,4.31,5,.75,5.43-3.87,7.68-6.35.05-.06,5.54-3.85,5.56-3.9,2.28,1.25,3.06-1.26,4.61-1.84,5.84-1.81,10-7.69,17-6.92a3.17,3.17,0,0,0,2.36-1.57c3.55-6.57,12-2.06,16.1-7.19,8.75,2.78,15.87-3.4,23.94-4.38,5.34-.65,10.64-2,16-2.23,5.54-.23,7.08,1.94,6.06,7.32-.92,4.8-2.18,9.53-3.21,14.31-1.75,8.11-5.8,15.45-7.48,23.63a325.41,325.41,0,0,1-15.6,52.13c-5.25,13.54-14.93,23.24-23.13,34.13-5.68,7.54-13,14-18.79,21.72l-1.79,2a64.65,64.65,0,0,0-12.38,16.65c-2.36,4.76-5.17,9.31-7.7,14-5.58,10.3-14.15,15.36-25.93,15.6-11.29.24-22.73.66-32.68,7a218,218,0,0,0-20.32,14.41c-2.2,1.79-4.42,2.48-6.82,3.49l-8.28,16.8,12.7-5.16a3.45,3.45,0,0,1,2-1.54,3.73,3.73,0,0,1,3.49,1.37c-1.81,3.93-5.92,5.93-8.08,9.45-1.65,2.69.88,2,2.27,1.95a5.73,5.73,0,0,0,1.9-1.45l2.08-.42a17.19,17.19,0,0,0,2.08-1.54l3.79-.45c1.16-1,2.92-.53,4.09-1.56h5.95c1.47,3.77-3.7,5.53-2.07,9.29,3.07-.89,6.16-2,9.32-2.68,4.3-1,8.53-1,12.56,1.32,8.68,5,17.34,5.17,26.64,1,8.87-4,18.77-1.86,28.17-3a43.74,43.74,0,0,1,10,0c10.17,1.16,18.68-1,26-9,4.33-4.7,11.91-4.71,17.39-8.76,6.27-4.63,14.17-7.59,19.87-12.53,7.92-6.85,18.12-10.1,25.19-18.27,3.84-4.43,9.83-6.93,16.6-7.92l8.18-13.43c2.15-4.39,6.51-6.18,10.24-8.71a224.4,224.4,0,0,0,36.43-30.44c.65-.68.81-2.11,1.52-2.41,10.63-4.44,16-14.53,23.2-22.39,7-7.59,11.85-17.06,17.53-25.78a64,64,0,0,1,8.8-10.66c3.76-3.72,6.54-2.49,8.85.94,1.66,2.48,4.33,4.53,5.3,7,4.82,12.31,15.92,18.24,25.46,25.6,4.14,3.19,5,8.52,9.27,11.26,1.1.69,1.8,2,2.91,2.66,14.09,7.79,23.1,21.5,35.91,30.73a19.73,19.73,0,0,1,5.71,6.8c3.87,7.07,1.48,11.88-6.44,11.61-10-.35-19,2.9-27.92,6.33-3.07,1.18-5.24,1.45-8.31-.1Z" transform="translate(-11.24 -6.3)"/><path class="cls-1" d="M480.31,239.1a1.58,1.58,0,0,1,1.62,1.52v16.3a1.53,1.53,0,0,1-1.62,1.62H452.88v9.83h21.71a1.3,1.3,0,0,1,1.4,1.41l-1.51,15.12a1.9,1.9,0,0,1-1.84,1.4H452.88v25.81a1.64,1.64,0,0,1-1.62,1.51H432.14a1.64,1.64,0,0,1-1.51-1.62V240.62a1.55,1.55,0,0,1,1.51-1.52Z" transform="translate(-11.24 -6.3)"/><path class="cls-1" d="M556.78,311.9c.54,1-.22,1.72-1.19,1.72H532.48A2.83,2.83,0,0,1,530,311.9l-11.23-23.55h-1.3v23.76a1.66,1.66,0,0,1-1.72,1.51h-19a1.64,1.64,0,0,1-1.62-1.51V240.72a1.66,1.66,0,0,1,1.62-1.62h28.51c16.63,0,27.65,9.72,27.65,24.41,0,8.53-5.19,17.17-13.29,20.63ZM523.83,270c3.68,0,6.16-2.27,6.16-5.72s-2.48-5.73-6.16-5.73h-6.37V270Z" transform="translate(-11.24 -6.3)"/><path class="cls-1" d="M621.25,294.18a1.56,1.56,0,0,1,1.62,1.41v16.52a1.64,1.64,0,0,1-1.62,1.51H571c-.76,0-1.51-.86-1.73-1.62V240.62a1.37,1.37,0,0,1,1.51-1.52H620a1.67,1.67,0,0,1,1.72,1.52v16.3a1.61,1.61,0,0,1-1.72,1.62H591.77v8.54h22.89a1.3,1.3,0,0,1,1.41,1.4l-1.52,15.12a1.88,1.88,0,0,1-1.83,1.4h-21v9.18Z" transform="translate(-11.24 -6.3)"/><path class="cls-1" d="M689.29,294.18a1.56,1.56,0,0,1,1.62,1.41v16.52a1.64,1.64,0,0,1-1.62,1.51H639.07c-.76,0-1.51-.86-1.73-1.62V240.62a1.37,1.37,0,0,1,1.51-1.52H688a1.67,1.67,0,0,1,1.73,1.52v16.3a1.61,1.61,0,0,1-1.73,1.62H659.8v8.54h22.9a1.3,1.3,0,0,1,1.41,1.4l-1.52,15.12a1.88,1.88,0,0,1-1.83,1.4h-21v9.18Z" transform="translate(-11.24 -6.3)"/><path class="cls-1" d="M711.54,290.94c.32-1.08,1.08-1.4,1.94-.86,5,2.81,10.91,4.86,15,5.18,3.46,0,5.73-1.62,5.73-4.1,0-6.37-30.35-6.05-30.35-29.59,0-14.47,10.91-24.09,27.32-24.09,7.67,0,17.39,3.14,24.19,7.78.87.54,1.19,1.4.87,1.94l-6.81,15.23c-.32,1.08-1.08,1.41-1.94.87-5.29-3-11.45-5.3-15.23-5.62-3.35,0-5.51,1.51-5.51,3.89,0,6.37,30.57,5.94,30.57,29.7,0,14.36-11.13,24-27.76,24-9.07,0-18.57-2.81-24-7.13-.87-.65-1.19-1.41-.87-1.95Z" transform="translate(-11.24 -6.3)"/><path class="cls-1" d="M827.74,239.1a1.41,1.41,0,0,1,1.51,1.52L827.63,257a1.81,1.81,0,0,1-1.72,1.51h-16.1v53.57a1.53,1.53,0,0,1-1.51,1.51H789.19a1.64,1.64,0,0,1-1.62-1.51V258.54H769.64a1.53,1.53,0,0,1-1.51-1.51V240.72a1.64,1.64,0,0,1,1.51-1.62Z" transform="translate(-11.24 -6.3)"/><path class="cls-1" d="M905.83,239.1c1,0,1.72.76,1.18,1.73l-23.86,43v28.29a1.64,1.64,0,0,1-1.62,1.51h-19a1.64,1.64,0,0,1-1.62-1.51V283.82l-23.87-43c-.54-1,.22-1.73,1.19-1.73h22.46a2.86,2.86,0,0,1,2.49,1.73L872,260.27l8.86-19.44a2.83,2.83,0,0,1,2.48-1.73Z" transform="translate(-11.24 -6.3)"/><path class="cls-1" d="M961.12,294.18a1.45,1.45,0,0,1,1.4,1.52L961,312.11a1.83,1.83,0,0,1-1.72,1.51h-39a1.64,1.64,0,0,1-1.62-1.51V240.72a1.66,1.66,0,0,1,1.62-1.62h19.11a1.66,1.66,0,0,1,1.62,1.62v53.46Z" transform="translate(-11.24 -6.3)"/><path class="cls-1" d="M1027.43,294.18a1.56,1.56,0,0,1,1.62,1.41v16.52a1.64,1.64,0,0,1-1.62,1.51H977.21c-.75,0-1.51-.86-1.73-1.62V240.62A1.37,1.37,0,0,1,977,239.1h49.14a1.68,1.68,0,0,1,1.73,1.52v16.3a1.62,1.62,0,0,1-1.73,1.62H998v8.54h22.9a1.29,1.29,0,0,1,1.4,1.4l-1.51,15.12a1.9,1.9,0,0,1-1.84,1.4H998v9.18Z" transform="translate(-11.24 -6.3)"/><path class="cls-1" d="M231.1,244.74l-5.94-15,10.2-4-15-37.85-10.2,4-5.95-15,69.6-27.53,10.86,27.45-15.31,6.06-8.28-11.09-13.57,5.37,5.08,12.85,11.84-4.68,4.32,10.93-11.84,4.68,5.57,14.07,10.1-4,5.95,15Z" transform="translate(-11.24 -6.3)"/><path class="cls-1" d="M302,216.61,297.84,201l8.69-2.29,4.76-43.35-11.52,3-4.12-15.64,54.65-14.41,34,49.85,8.69-2.3,4.13,15.64-49.35,13-4.12-15.64,7.11-1.87-4.36-6.92-19.87,5.24-.49,8.2,10.5-2.77,4.12,15.63Zm24.6-42.74L341,170.06l-12.14-19.94Z" transform="translate(-11.24 -6.3)"/><path class="cls-1" d="M400.34,174.86l9-1.46-6.5-40.17-9,1.45-2.58-16,57.52-9.31q14-2.26,21.26,1.23t9,14q1.14,7.07-3.14,11.65t-13.07,7.35q8.24-.27,12.44,3a13.77,13.77,0,0,1,5.12,9l.95,5.84,12.57-2,2.62,16.24-18.09,2.93c-5.85.94-10.08,1.31-12.72,1.1a8.81,8.81,0,0,1-6.65-4.16q-2.69-3.84-4.27-13.59-.9-5.56-3.58-7.89t-8.68-1.36l-6.8,1.1,2.42,14.94,9-1.46,2.58,16-46.8,7.58Zm41.45-32.61q6.1-1,8.82-3.24c1.8-1.49,2.47-3.73,2-6.7a5.81,5.81,0,0,0-3.88-4.61,15.24,15.24,0,0,0-8.2-.58l-8.88,1.44,2.42,14.94Z" transform="translate(-11.24 -6.3)"/><path class="cls-1" d="M549.14,171.07l-22.16-56-9.33.38L517,99.19l50.75-2.07.66,16.24-8.63.36,10.16,25.64L583,96.49l23.34-.95,16,40.27,7.86-25-7.93.32-.67-16.24,37.57-1.54.67,16.25-9.57.39-17.17,57.62-30.91,1.26-12.29-32-10.23,32.88Z" transform="translate(-11.24 -6.3)"/><path class="cls-1" d="M668.94,168.06l.9-16.14,11,.62,2.28-40.64-11-.62L673,95.14l76.48,4.29-1.62,29-14.58-.82-4.76-13.16-16.32-.92-.67,11.92,14.58.82-.68,12-14.57-.82L710,154.17l16.32.92,6.32-14.62,14.58.82-1.75,31.06Z" transform="translate(-11.24 -6.3)"/><path class="cls-1" d="M780.24,177.19a38.41,38.41,0,0,1-8.26-5.47l-2.55,3.91-18.27-2.54,3.08-22.16,18.16,2.53a10.39,10.39,0,0,0,4.63,6.15,22.83,22.83,0,0,0,8.74,2.83,13.25,13.25,0,0,0,5.7-.3c1.64-.5,2.55-1.34,2.71-2.52a3.61,3.61,0,0,0-1.9-3.68,32.21,32.21,0,0,0-6.37-3,119.87,119.87,0,0,1-17.14-7.71,27.64,27.64,0,0,1-10.17-9.57q-3.55-5.81-2.36-14.37a20,20,0,0,1,5.15-11.15,23,23,0,0,1,11.21-6.41,39.62,39.62,0,0,1,15.88-.64q10.88,1.51,16.46,8l3.49-3.88,16.19,2.26-3,21.69-17.35-2.42a14.82,14.82,0,0,0-4.59-6.42,17.33,17.33,0,0,0-7.81-2.71,13.49,13.49,0,0,0-6.23.28,3.44,3.44,0,0,0-2.57,2.77q-.3,2.14,2.61,3.73a51.29,51.29,0,0,0,8.42,3.41,94.51,94.51,0,0,1,16.42,7,27.41,27.41,0,0,1,10.13,9.38q3.52,5.67,2.41,13.67a22.59,22.59,0,0,1-5.24,11.8,24.47,24.47,0,0,1-11.27,7.26A34.38,34.38,0,0,1,791.11,180,40,40,0,0,1,780.24,177.19Z" transform="translate(-11.24 -6.3)"/><path class="cls-1" d="M842.56,187.44l4.18-16,9,2.36,10.2-39-7.8-2-5.56,11.56-15.47-4,7.27-27.83L927,134l-7.28,27.83-15.48-4.05.82-12.81-8-2.09-10.2,39,9,2.37-4.18,16Z" transform="translate(-11.24 -6.3)"/><path d="M39,510c8.24,13.31,35,66,112,66H393V551H144c-43,0-74.39-28.14-92-53C35,474,26,489,39,510Z" transform="translate(-11.24 -6.3)"/><path d="M527,510c8.24,13.31,35,66,112,66H881V551H632c-43,0-74.39-28.14-92-53C523,474,514,489,527,510Z" transform="translate(-11.24 -6.3)"/><path d="M395,477c8.24,13.31,35,66,112,66H749V518H500c-43,0-74.39-28.14-92-53C391,441,382,456,395,477Z" transform="translate(-11.24 -6.3)"/><path d="M872,510c8.24,13.31,35,66,112,66h242V551H977c-43,0-74.39-28.14-92-53C868,474,859,489,872,510Z" transform="translate(-11.24 -6.3)"/></svg>