<?xml version="1.0" encoding="utf-8"?>
<!-- Generator: Adobe Illustrator 23.1.1, SVG Export Plug-In . SVG Version: 6.00 Build 0)  -->
<svg version="1.1" id="Layer_1" xmlns="http://www.w3.org/2000/svg" xmlns:xlink="http://www.w3.org/1999/xlink" x="0px" y="0px"
	 viewBox="0 0 1160 583" style="enable-background:new 0 0 1160 583;" xml:space="preserve">
<style type="text/css">
	.st0{fill:#FFFFFF;}
</style>
<path d="M526.07,510.37c-1.4,5.86-6.54,8.4-7.95,13.09c-0.74,1.63-0.81,3.24,0.12,4.82c0.51,1.12,1,2.26,0.13,3.43
	c-0.23,1.11-1.94,2.52-0.23,3.26c2.07,0.89,4.19-2.2,6.59-0.46c0.57,2.6-2.7,2.5-3.13,4.45c1.62,1.22,3.44,2.31,5.45,1.25
	c7.56-4.02,15.65-2.57,23.51-2.06c3.99,0.26,7.84,0.81,11.7-0.35c12.69-3.8,25.56-1.34,38.37-1.16c9.79,0.14,19.16-1.43,27.94-5.98
	c2.38-1.23,5.27-2.08,6.3-4.61c3.47-8.52,11.59-11.15,18.96-15.56c0,0-3.48-13.58-3.22-14.34c3.29-6.66,6.91-13.19,9.76-20.03
	c2.69-6.45,5.76-12.97,4.18-20.43c-0.63-2.96-1.02-5.95-3.17-8.23c-2.41-2.57-3.36-5.61-3.64-9.04c-0.13-1.61-0.48-3.46-1.4-4.71
	c-8.53-11.57-10.32-26.24-17.98-38.37c-3.37-5.34-5.21-12.59-5.66-19.95c9.27,0.57,18.12,0.56,26.78,1.87
	c4.31,0.65,8.1-1.02,12.33-0.72c4.99,0.35,10.03-0.28,14.88,1.57c4.78,1.82,10.22-1.85,14.79,1.78c0.77,0.61,1.68,1.05,2.52,1.56
	c2.76-1.35,4.12,2.91,6.84,1.69c1.53-0.75,2.32-2.29,3.55-3.36c0.19-0.28,0.31-0.66,0.57-0.81c3.99-2.28,2.77,2.41,4.1,3
	c2.18,0.97,4.11-3.99,4.5-2.97c2.94,7.61,4.33-0.2,6.22-0.55c2.42-0.46,4.53-0.64,6.61,0.82c1.97,1.38,0.47,2.96,0.24,4.44
	c-0.4,2.62-0.95,5.21-1.37,7.83c-0.93,5.72-3.29,11.29-0.8,17.31c0.82,1.98,0.37,4.63,0.02,6.9c-2.28,14.94,0.66,29.38,3.56,43.91
	c1.02,5.13,0.83,10.56,0.67,15.84c-0.2,6.71,0.65,13.32,2.35,19.68c0.78,2.93,0.35,4.98-0.59,7.47c-1.77,4.68-4.18,7.13-9.96,7.68
	c-15.19,1.46-30.57,0.33-45.64,3.52c-4.25,0.9-8.57-0.33-12.66-1.97l-6.01,9.79c1.98,1.19,0.18,2.99,0.45,4.48
	c-0.29,0.33-0.58,0.66-0.87,1c-2.86,2.13-6.17,3.31-9.51,4.44l0.02,0.03c-0.61,0.8-1.36,1.45-2.21,1.98
	c-0.62,0.02-1.22,0.16-1.79,0.42c-0.67,0.43-1.22,0.97-1.64,1.64c-0.1,0.69-0.2,1.37-0.3,2.06c0.66,1.83,1.42,0.35,2.14,0.06
	c0.63,0.65,1.27,1.3,1.9,1.94c-0.1,4.76,5.14,1.77,6.45,4.41c0.28,0.56-0.03,1.22,0.07,1.73c0.19,0.92,0.68,0.85,0.9-0.13
	c0.73-1.01,1.76-1.44,2.83-1.82c1.54,0.8,2.81,1.8,2.55,3.78c-0.22,1.68-0.96,3.06,2.16,2.65c8.23-1.07,15.95,2.45,23.09,5.29
	c9.04,3.59,17.84,4.21,26.96,3.13c3.64-0.43,6.99-1.17,10.72-0.32c3.82,0.87,7.6,0.02,11.56-1.02c8.21-2.15,16.68-2.76,25.32-2.75
	c13.12,0.01,26.45-0.03,38.97-5.26c2.45-1.02,3.34-3.23,4.15-5.34c3.53-9.23,10.95-15.72,16.29-23.66
	c4.9-7.29,24.34-23.04,22.91-24.98c-1.89-2.57,0.45-4.35,2.38-5.54c4.34-2.69,6.47-8.58,12.73-8.57c1.94,0,1.97-2.4,2.93-3.64
	c2.22-2.87,6.81-5.86,10.29-6.79c2.06-0.55,3.39-2.02,4.37-3.8c2.1-3.83,18.25-21.32,21.27-21.48c8.64-0.47,13.41-6.96,18.72-11.9
	c5.3-4.93,10.99-8.93,17.07-12.64c4.47-2.73,5.12-1.38,7.13,3.33c4.83,11.39,9.76,23.45,20.13,31.01
	c11.82,8.63,23.72,17.19,39.05,19.86c6.44,1.12,12.5,5.43,19.37,6.95c5.91,1.31,11.73,1.64,17.73,1.87
	c10.29,0.4,20.4,1.62,27.5,11.08c2.85,3.81,2.45,6.5,0.07,9.53c-3.27,4.15-7.93,6.15-13.05,6.46c-9.02,0.55-17.5,2.96-26.21,5.27
	l-17.66,11.72c-1.29,3.91-5.7,4.29-6.68,7.66c-1.06,2.47,0.09,2.75,2.14,2.15c1.67,0.51,6.8-2.42,3.32,3.2
	c-1.31,2.12-3.79,3.55-3.55,6.51c3.58,0.42,6.64-3.46,10.53-1.36c-0.45,1.62-0.86,3.15-1.29,4.69c0.75,0.23,1.46,0.72,1.93,0.55
	c7.33-2.67,14.31-0.81,21.35,1.31c6.7,2.03,13.25,2.67,20.52,1.42c8.42-1.44,17.42-1.37,25.88-0.05c7.47,1.17,12.77-2.04,18.49-5.1
	c2.61-1.4,5.12-3.21,7.21-5.29c7.04-6.99,16.07-8.79,25.29-10l8.29-14.22c2.45-7.26,1.56-14.77,0.96-22.37
	c-1.77-22.35-13.27-40.23-25.91-57.58c-3.37-4.63-6.03-9.49-7.73-14.9c-8.35-26.61-11.72-54.09-14.26-81.7
	c-1.2-13.07,0.32-26.51-6.17-38.77c-0.88-1.67-0.87-3.88-1.03-5.86c-0.6-7.26-3.61-13.97-4.23-21.35
	c-0.44-5.3-4.42-10.09-6.21-15.52c-3.22-9.75-3.73-20.36-9.12-29.41c-1.74-2.93-0.12-5.02,1.84-7.01
	c4.87-4.94,4.69-11.38,3.07-16.94c-3.74-12.77-10.5-24.5-18.02-35.21c-8.88-12.64-19.81-23.91-30.38-35.29
	c-9.85-10.61-18.8-21.94-29.31-32.12c-13.66-13.23-28.02-24.78-44.71-33.48c-24.55-12.79-50.03-23.34-76.14-32.68
	c-11.16-3.99-22.2-6.24-33.72-7.59c-5.27-0.61-10.63-1.13-15.73-2.51c-15.01-4.06-30.28-4.24-45.49-2.85
	c-18.16,1.65-36.4,2.18-54.34,6.78c-17.35,4.45-35.33,6.41-52.87,10.18c-22.6,4.86-45.4,6.42-68.32,4.43
	C595,46.7,581.1,45.43,568.72,37.65c-3.58-2.25-6.57-5.42-10.21-7.12c-10-4.66-19.1-11.66-30.64-12.57
	c-3.3-5.08-9.65-2.11-13.36-4.74c-6.37-4.52-13.47-4.16-20.46-5.38c-10.21-1.79-20.33,0.51-30.51-0.09
	c-3.29-0.19-6.37-1.88-9.51-1.33c-13.23,2.34-26.47,4.65-39.58,7.56c-16.75,3.71-31.85,11.35-46.08,20.78
	c-10.31,6.83-20.19,14.45-31.04,20.29c-11.04,5.94-21.97,12.12-33.09,17.91c-3.98,2.07-9.06,1.37-13.14,3.76
	c-16.46,9.64-34.68,15.93-50.54,26.77c-8.94,6.1-18.49,11.36-25.66,19.68c-2.75,3.19-6.03,5.43-9.93,6.28
	c-4.61,1-4.49-4.12-6.69-6.25c-9.08-8.83-19.96-8.4-28.2,1.76c-2.91,3.59-5.71,7.45-7.14,11.93c-1.94,6.07-6.02,8.55-12.15,10.12
	c-5.86,1.5-10.32,0.75-14.84-2.77c-3.13-2.44-6.36-4.77-9.66-6.96c-5.61-3.73-9.51-3.31-13.92,1.87
	c-7.91,9.28-11.29,20.36-10.2,32.29c0.48,5.29-0.7,8.77-4.2,12.39c-4.83,4.98-9.75,9.95-13.19,16.12
	c-6.47,11.61-13.01,23.17-19.5,34.77c-2.18,3.91-2.4,7.85,1.39,10.76c2.78,2.13,2.56,4.47,2.96,7.57
	c1.16,8.99-3.17,15.47-8.27,21.63c-11.67,14.08-23.71,27.87-35.43,41.91c-2.17,2.6-4.35,4.72-7.41,6.34
	c-3.04,1.61-7.71,2.97-7.22,7.27c0.48,4.17,4.41,6.35,8.28,7.82c1.5,0.57,3,1.11,4.5,1.66c-0.56,3.82,1.64,6,4.65,7.74
	c7.29,4.24,15.13,6.77,23.55,6.87c4.58,0.05,8.4,1.23,11.79,4.31c1.55,1.41,2.85,3.75,5.61,2.98c1.71-2.36-2.74-6.56,2.07-7.52
	c8.56-1.71,14.4-7.97,21.51-12.12c2.15-1.25,4.25-3.54,7.23-0.91c-1.24,6.03-4.86,10.6-9.17,14.8c-3.49,3.4-4.89,7.1-1.02,11.23
	c0.88,0.94,1.95,1.88-0.1,3.11c-3.15,1.22-6.41-7.57-9.92-0.31c-0.72-0.86-1.44-0.82-2.18-0.02c0.15,1.96,0.78,3.8,0.42,5.88
	c-1.97,11.31,2.05,16.58,13.46,18.05c2.62,0.34,5.23,0.8,7.84,1.26c8.52,1.5,16.71,0.36,23.7-4.73c5.37-3.91,11.31-6.98,17.17-9.44
	c13.58-5.69,27.35-5.28,39.57,4.22c2.86,2.23,6.18,4.89,3.31,12.03c4.59-4.17,7.94-4.09,10.92-5.24c1.21-1.67,0.53-4.58,3.39-5.18
	c1.19-0.68,1.64-1.92,2.31-2.99c0.65-0.67,1.3-1.35,1.96-2.02c1.71-5.11,5.78-4.93,9.98-4.45c1.97-2.88,0.97-7.2,4.49-9.38
	c0.11-0.07-0.39-1.13-0.6-1.72c-0.51-2.08-0.09-3.21,2.34-2.3l0.18-0.16c0.56,0.83,1.29,0.97,2.16,0.52
	c1.6-1.54,0.68-5.24,4.32-5.03c-0.71-5.19,1.97-1.94,3.54-1.43l0.78,0.07l0.77-0.11c1.08-0.52,1.62-1.45,1.97-2.53
	c0.21-1.1,0.19-2.21,0.14-3.32c0.4-1.41-1.75-4.11,1.95-3.84c3.04,0.21,2.89,5.4,6.75,4.32c4.94,0.75,5.42-3.87,7.68-6.36
	c0.05-0.06,5.54-3.85,5.56-3.9c2.28,1.26,3.05-1.26,4.6-1.84c5.85-1.81,10.02-7.69,16.98-6.92c0.74,0.08,1.95-0.82,2.36-1.58
	c3.55-6.56,11.98-2.06,16.1-7.19c8.75,2.78,15.87-3.39,23.94-4.38c5.34-0.65,10.64-2.01,15.99-2.23c5.55-0.23,7.08,1.94,6.06,7.32
	c-0.91,4.8-2.18,9.53-3.21,14.31c-1.75,8.11-5.8,15.45-7.48,23.63c-3.66,17.82-9,35.05-15.61,52.12
	c-5.24,13.54-14.92,23.25-23.13,34.14c-5.68,7.54-13.03,14.02-18.79,21.72l-1.79,2.04c-4.91,4.97-9.24,10.33-12.38,16.65
	c-2.36,4.76-5.17,9.3-7.7,13.98c-5.58,10.31-14.15,15.36-25.93,15.61c-11.3,0.23-22.73,0.66-32.68,6.97
	c-7.01,4.45-13.87,9.2-20.32,14.41c-2.2,1.78-4.42,2.47-6.82,3.48l-8.28,16.81c4.23-1.72,12.3,0.59,10.14,4.12
	c-1.65,2.7,0.88,1.99,2.27,1.95c0.73-0.36,1.37-0.83,1.9-1.45c0.69-0.14,1.38-0.28,2.07-0.42c0.73-0.46,1.43-0.97,2.08-1.53
	c1.26-0.15,2.53-0.3,3.79-0.46c1.16-1.05,2.92-0.52,4.09-1.56c1.97,0,3.94,0,5.95,0c1.47,3.77-3.7,5.53-2.06,9.29
	c3.07-0.89,6.16-1.95,9.32-2.68c4.29-0.99,8.52-1,12.56,1.31c8.68,4.97,17.33,5.17,26.64,0.98c8.87-3.99,18.77-1.86,28.17-2.95
	c3.28-0.38,6.68-0.43,9.96-0.06c10.18,1.17,18.69-0.99,26.04-8.99c4.32-4.71,11.9-4.71,17.39-8.77c6.26-4.63,14.17-7.59,19.87-12.53
	c7.91-6.85,18.11-10.1,25.19-18.27c3.84-4.43,9.82-6.93,16.6-7.92l8.18-13.43c2.15-4.39,6.51-6.18,10.24-8.71
	c13.16-8.93,25.43-18.92,36.43-30.44c0.65-0.68,0.81-2.11,1.52-2.41c10.63-4.45,16-14.53,23.2-22.4
	c6.95-7.58,11.85-17.06,17.52-25.78c2.54-3.91,5.47-7.37,8.81-10.66c3.76-3.72,6.53-2.49,8.85,0.94c1.67,2.48,4.33,4.52,5.3,6.98
	c4.82,12.32,15.93,18.25,25.47,25.6c4.14,3.19,4.97,8.53,9.27,11.26c1.09,0.69,1.79,2.04,2.91,2.66
	c14.09,7.79,23.09,21.5,35.91,30.74c2.56,1.84,4.29,4.22,5.7,6.8c3.88,7.08,1.49,11.89-6.44,11.61c-10-0.35-18.97,2.91-27.92,6.34
	c-3.07,1.18-5.24,1.45-8.31-0.11L526.07,510.37z"/>
<g>
	<path class="st0" d="M351,288.68V254.2h22.58v6.16h-15.37v8.98h14.03v5.9h-14.03v13.43H351z"/>
	<path class="st0" d="M416.83,288.68h-7.22V254.2h14.48c1.9,0,3.6,0.25,5.11,0.76c1.51,0.51,2.8,1.24,3.85,2.2s1.86,2.11,2.43,3.48
		c0.57,1.36,0.85,2.9,0.85,4.62c0,1.1-0.14,2.16-0.42,3.17c-0.28,1.01-0.68,1.94-1.22,2.8c-0.53,0.85-1.19,1.6-1.97,2.26
		c-0.78,0.65-1.66,1.18-2.65,1.58l7.26,13.62h-8.17l-6.43-12.5h-5.9V288.68z M416.83,270.64h6.33c1.83,0,3.25-0.46,4.25-1.39
		c1-0.92,1.51-2.22,1.51-3.89c0-0.81-0.14-1.55-0.41-2.21c-0.27-0.66-0.66-1.22-1.16-1.68c-0.5-0.46-1.11-0.82-1.84-1.06
		c-0.73-0.25-1.53-0.37-2.43-0.37h-6.26V270.64z"/>
	<path class="st0" d="M495.8,288.68h-22.84V254.2h22.84v6.16h-15.63v8.05h14.74v5.71h-14.74v8.39h15.63V288.68z"/>
	<path class="st0" d="M555.61,288.68h-22.84V254.2h22.84v6.16h-15.63v8.05h14.74v5.71h-14.74v8.39h15.63V288.68z"/>
	<path class="st0" d="M597.99,279.1c0.08,0.7,0.31,1.33,0.69,1.9c0.38,0.57,0.89,1.05,1.52,1.44c0.63,0.4,1.36,0.71,2.21,0.92
		c0.84,0.22,1.78,0.32,2.8,0.32c0.94,0,1.8-0.11,2.58-0.32c0.78-0.21,1.45-0.52,2.02-0.91c0.56-0.39,1.01-0.86,1.33-1.4
		c0.32-0.54,0.48-1.14,0.48-1.79c0-0.54-0.11-1.04-0.33-1.48c-0.22-0.45-0.57-0.84-1.05-1.19s-1.1-0.66-1.85-0.94
		c-0.76-0.28-1.66-0.53-2.71-0.75l-4.49-0.96c-6.25-1.31-9.37-4.59-9.37-9.85c0-1.62,0.31-3.1,0.94-4.42
		c0.63-1.32,1.52-2.46,2.66-3.41c1.15-0.95,2.53-1.68,4.16-2.19c1.62-0.51,3.43-0.76,5.42-0.76c1.9,0,3.64,0.25,5.23,0.76
		c1.59,0.51,2.97,1.22,4.13,2.14c1.16,0.92,2.08,2.01,2.75,3.29c0.67,1.27,1.03,2.68,1.07,4.21h-6.79
		c-0.08-0.68-0.29-1.31-0.64-1.86c-0.35-0.56-0.8-1.04-1.35-1.43c-0.55-0.4-1.19-0.71-1.93-0.92c-0.74-0.22-1.55-0.32-2.43-0.32
		c-0.91,0-1.73,0.1-2.46,0.3c-0.73,0.2-1.36,0.49-1.89,0.86c-0.53,0.37-0.93,0.83-1.22,1.36c-0.29,0.53-0.43,1.13-0.43,1.78
		c0,1.07,0.44,1.93,1.33,2.58c0.88,0.65,2.34,1.19,4.36,1.62l4.16,0.88c1.74,0.37,3.23,0.83,4.48,1.4c1.25,0.57,2.28,1.25,3.08,2.04
		c0.8,0.8,1.4,1.72,1.78,2.77c0.38,1.05,0.57,2.25,0.57,3.58c0,1.74-0.32,3.3-0.97,4.68c-0.65,1.39-1.57,2.56-2.78,3.52
		c-1.21,0.96-2.68,1.7-4.4,2.22c-1.72,0.52-3.66,0.78-5.83,0.78c-2.06,0-3.92-0.24-5.59-0.73c-1.67-0.49-3.11-1.18-4.3-2.09
		c-1.19-0.91-2.13-2.01-2.81-3.3c-0.68-1.29-1.05-2.74-1.11-4.35H597.99z"/>
	<path class="st0" d="M663.34,288.68v-28.32H653v-6.16h27.91v6.16h-10.35v28.32H663.34z"/>
	<path class="st0" d="M726.21,288.68V276l-12.02-21.79H722l7.6,14.43h0.43l7.57-14.43h7.81l-12,21.79v12.69H726.21z"/>
	<path class="st0" d="M803.24,288.68h-22.56V254.2h7.22v28.2h15.34V288.68z"/>
	<path class="st0" d="M862,288.68h-22.84V254.2H862v6.16h-15.63v8.05h14.74v5.71h-14.74v8.39H862V288.68z"/>
</g>
<g>
	<path class="st0" d="M301.91,233.15l-6.65-17.52l9.58-3.63l-16.74-44.11l-9.58,3.63l-6.65-17.52l65.3-24.79l12.14,31.99
		l-14.36,5.45l-8.65-13.27l-12.73,4.83l5.68,14.98l11.1-4.22l4.83,12.73l-11.1,4.21l6.23,16.4l9.47-3.6l6.65,17.52L301.91,233.15z"
		/>
	<path class="st0" d="M367.52,208.01l-4.07-18.29l8.19-1.82l4.01-49.23l-10.85,2.41l-4.07-18.29l51.48-11.45l32.71,60.26l8.19-1.82
		l4.07,18.3l-46.48,10.33l-4.07-18.29l6.7-1.49l-4.2-8.33l-18.72,4.16l-0.38,9.35l9.89-2.2l4.07,18.3L367.52,208.01z M390.29,161.31
		l13.62-3.03l-11.69-23.97L390.29,161.31z"/>
	<path class="st0" d="M459.98,169.28l8.46-0.82l-4.58-46.96l-8.46,0.82l-1.82-18.65l54.12-5.27c8.75-0.85,15.36,0.29,19.82,3.43
		c4.47,3.14,7.1,8.8,7.89,16.97c0.53,5.5-0.59,9.88-3.37,13.14c-2.79,3.26-6.95,5.68-12.49,7.24c5.14,0.3,8.97,1.85,11.51,4.63
		c2.53,2.78,4.02,6.41,4.46,10.9l0.67,6.83l11.82-1.15l1.85,18.98l-17.03,1.66c-5.5,0.54-9.47,0.56-11.93,0.07
		c-2.46-0.49-4.48-2.3-6.06-5.43c-1.58-3.13-2.74-8.49-3.48-16.08c-0.42-4.34-1.44-7.49-3.06-9.44c-1.61-1.96-4.3-2.76-8.06-2.39
		l-6.4,0.62l1.7,17.46l8.46-0.82l1.82,18.65l-44.03,4.29L459.98,169.28z M499.94,135.6c3.83-0.37,6.62-1.34,8.37-2.9
		c1.74-1.56,2.45-4.07,2.11-7.54c-0.25-2.53-1.4-4.43-3.45-5.69c-2.06-1.26-4.6-1.74-7.64-1.44l-8.35,0.81l1.7,17.46L499.94,135.6z"
		/>
	<path class="st0" d="M598.13,179.15l-14.86-66.84l-8.7-0.48L575.6,93l47.33,2.61l-1.04,18.82l-8.05-0.44l6.82,30.6l16.52-48.2
		l21.76,1.2l10.77,48.07l9.84-28.05l-7.4-0.41l1.04-18.82l35.03,1.93l-1.04,18.82l-8.92-0.49l-21.8,64.82l-28.83-1.59l-8.15-38.1
		l-12.84,36.94L598.13,179.15z"/>
	<path class="st0" d="M708.75,187.46l3.34-18.44l10.08,1.83l8.42-46.42l-10.08-1.83l3.35-18.44l70.33,12.76l-6.01,33.13l-13.4-2.43
		L772.4,132l-15.01-2.72l-2.47,13.62l13.4,2.43l-2.49,13.72l-13.4-2.43l-3.46,19.08l15.01,2.72l8.13-16.13l13.4,2.43l-6.44,35.49
		L708.75,187.46z"/>
	<path class="st0" d="M809.85,209.24c-2.2-1.66-4.4-4.03-6.61-7.1l-3.16,4.19l-16.52-4.83l7.28-24.89l16.42,4.8
		c0.21,3.17,1.24,5.66,3.09,7.49c1.85,1.83,4.38,3.21,7.58,4.15c1.95,0.57,3.74,0.66,5.37,0.26c1.63-0.39,2.64-1.25,3.02-2.58
		c0.49-1.67,0.14-3.14-1.04-4.39c-1.19-1.25-2.97-2.61-5.34-4.06c-6.02-3.73-10.84-7.26-14.44-10.58
		c-3.61-3.33-6.13-7.32-7.57-11.98c-1.44-4.66-1.22-10.2,0.66-16.61c1.45-4.95,3.78-9,7.01-12.14c3.23-3.14,7.13-5.18,11.72-6.11
		c4.59-0.93,9.56-0.61,14.93,0.96c6.55,1.92,11.14,5.53,13.75,10.83l4.02-4.05l14.64,4.28l-7.13,24.37l-15.69-4.59
		c-0.57-3.5-1.57-6.1-3-7.8c-1.43-1.71-3.68-3.01-6.75-3.9c-2.37-0.69-4.32-0.81-5.86-0.35c-1.54,0.46-2.52,1.42-2.95,2.88
		c-0.47,1.6,0.09,3.11,1.69,4.52c1.59,1.41,3.98,3,7.18,4.77c5.66,3.17,10.29,6.4,13.91,9.69c3.62,3.29,6.14,7.21,7.58,11.75
		c1.43,4.54,1.27,9.81-0.48,15.81c-1.49,5.09-3.9,9.38-7.23,12.87c-3.33,3.49-7.31,5.85-11.94,7.07c-4.63,1.22-9.5,1.08-14.58-0.41
		C815.25,212.35,812.05,210.91,809.85,209.24z"/>
	<path class="st0" d="M864.9,227.21l8.04-17.41l7.91,3.65l19.6-42.44l-6.83-3.15l-8.2,12.3l-13.55-6.26l13.98-30.27l72.31,33.4
		l-13.98,30.27l-13.55-6.26l4.05-14.21l-7.02-3.24l-19.6,42.44l7.91,3.65l-8.04,17.41L864.9,227.21z"/>
</g>
<path d="M48,505.31c9,26.81,34,67.02,67,67.02S403,574,403,574l-1-21.78c0,0-241.99-1.68-285-1.68c-25,0-45.02-29.58-54-50.26
	C55,481.85,39.16,478.98,48,505.31z"/>
<path d="M381,472.31c9,26.81,34,67.02,67,67.02S736,541,736,541l-1-21.78c0,0-241.99-1.68-285-1.68c-25,0-45.02-29.58-54-50.26
	C388,448.85,372.16,445.98,381,472.31z"/>
<path d="M594,492.31c9,26.81,34,67.02,67,67.02S949,561,949,561l-1-21.78c0,0-241.99-1.68-285-1.68c-25,0-45.02-29.58-54-50.26
	C601,468.85,585.16,465.98,594,492.31z"/>
<path d="M904,489.31c9,26.81,34,67.02,67,67.02s179,1.68,179,1.68l-1-21.78c0,0-132.99-1.68-176-1.68c-25,0-45.02-29.58-54-50.26
	C911,465.85,895.16,462.98,904,489.31z"/>
</svg>
