<?xml version="1.0" encoding="utf-8"?>
<!-- Generator: Adobe Illustrator 23.1.1, SVG Export Plug-In . SVG Version: 6.00 Build 0)  -->
<svg version="1.1" xmlns="http://www.w3.org/2000/svg" xmlns:xlink="http://www.w3.org/1999/xlink" x="0px" y="0px"
	 viewBox="0 0 200 200" style="enable-background:new 0 0 200 200;" xml:space="preserve">
<style type="text/css">
	.st0{fill:#1976D2;}
	.st1{fill:#FFFFFF;}
</style>
<g id="background">
	<rect class="st0" width="200" height="200"/>
</g>
<g id="Layer_1">
	<path class="st1" d="M200,142.92V94c0,0-6-7-8-9s-5-2-7,0c-3,3-7.91,7.91-13,13c-4,4-7,5-11,0c-3.53-4.42-27-28-36.51-38.98
		c-3.16-3.65-4.97-3.61-8.37-1.49c-9.73,6.06-19.75,11.66-29.34,17.93c-4.98,3.26-8.24,2.12-11.43-2.15
		c-3.37-4.51-7.21-8.72-10.19-13.46c-2.48-3.94-4.6-3.42-8.05-1.4C38.52,69.29,0,91.26,0,91.26V200l199.93-0.43L200,142.92z
		 M80.8,113.2c-3.86-0.86-6.32-3.07-8.37-6.19c-6.42-9.75-11.78-19.75-7.93-32.02c2.99,1.5,4.52,5.08,6.61,7.98
		c2.51,3.49,4.97,6.24,9.81,5.39c2.28-0.4,3.51,1.2,4.77,3.01c6.39,9.14,12.96,18.15,20.09,28.06C96.77,117.17,88.83,115,80.8,113.2
		z M160.45,133.92c-18.53-1.59-25.94-16.52-35.69-28.75c-1.42-1.79-1.28-3.77-1.28-5.78c-0.01-7.81,0-15.62,0-25.65
		c6.23,7.55,11.2,13.44,16.03,19.44c6.62,8.21,13.13,16.5,19.7,24.74c0.69,0.87,1.36,2.33,2.18,2.44
		c10.37,1.39,13.74,10.58,20.76,17.85C173.76,138.04,167.32,134.51,160.45,133.92z"/>
</g>
</svg>
