<svg id="Layer_1" data-name="Layer 1" xmlns="http://www.w3.org/2000/svg" width="3.3in" height="1.46in" viewBox="0 0 237.55 104.9"><defs><style>.cls-1{fill:#231f20;}.cls-2{fill:#0f1d40;}.cls-3{fill:#d9242f;}.cls-4{fill:#d4d0cd;}.cls-5{fill:#0f1e40;}.cls-6{fill:#fff;}</style></defs><title>farwest-freestyle-logo</title><path class="cls-1" d="M94.93,54.24a3.52,3.52,0,0,1-1.32,2.9,5.78,5.78,0,0,1-3.68,1,8.67,8.67,0,0,1-3.84-.81V54.7a16,16,0,0,0,2.32.87,7.29,7.29,0,0,0,1.74.25,2.46,2.46,0,0,0,1.45-.36,1.25,1.25,0,0,0,.51-1.08,1.17,1.17,0,0,0-.22-.71,2.44,2.44,0,0,0-.66-.6,16.72,16.72,0,0,0-1.76-.92A8.36,8.36,0,0,1,87.61,51a4.24,4.24,0,0,1-1-1.25,3.54,3.54,0,0,1-.37-1.67,3.49,3.49,0,0,1,1.22-2.83,5,5,0,0,1,3.37-1,7.87,7.87,0,0,1,2,.25,14.1,14.1,0,0,1,2,.7l-.92,2.24a13.94,13.94,0,0,0-1.8-.62,5.64,5.64,0,0,0-1.39-.18,1.88,1.88,0,0,0-1.26.38,1.27,1.27,0,0,0-.43,1,1.3,1.3,0,0,0,.17.66,2.1,2.1,0,0,0,.56.55,20.13,20.13,0,0,0,1.83,1A7.11,7.11,0,0,1,94.22,52,3.57,3.57,0,0,1,94.93,54.24Z" transform="translate(-4.38 -4.46)"/><path class="cls-1" d="M108.3,58H105l-3.55-5.72-1.22.87V58H97.39V44.44h2.87v6.21l1.14-1.6,3.67-4.61h3.19l-4.73,6Z" transform="translate(-4.38 -4.46)"/><path class="cls-1" d="M110,58V44.44h2.87V58Z" transform="translate(-4.38 -4.46)"/><path class="cls-1" d="M133.77,58h-3.49l-1.07-1a6.87,6.87,0,0,1-4,1.23,5.64,5.64,0,0,1-3.59-1,3.39,3.39,0,0,1-1.33-2.81,3.93,3.93,0,0,1,.57-2.16,5.24,5.24,0,0,1,1.92-1.68,6.15,6.15,0,0,1-1-1.52,4,4,0,0,1-.32-1.6,2.77,2.77,0,0,1,1.08-2.27,4.57,4.57,0,0,1,2.9-.86,4.42,4.42,0,0,1,2.76.8,2.61,2.61,0,0,1,1,2.15,3.44,3.44,0,0,1-.64,2A6.41,6.41,0,0,1,126.5,51l2.64,2.57a12.28,12.28,0,0,0,1.14-2.8h2.95a14,14,0,0,1-.92,2.45A11,11,0,0,1,131,55.29Zm-10.51-3.94a1.55,1.55,0,0,0,.6,1.28,2.44,2.44,0,0,0,1.54.47,3.94,3.94,0,0,0,2.1-.57l-3.08-3.06a4,4,0,0,0-.85.85A1.81,1.81,0,0,0,123.26,54.07Zm3.33-6.57a1,1,0,0,0-.33-.78,1.27,1.27,0,0,0-.86-.28,1.47,1.47,0,0,0-1,.3,1,1,0,0,0-.36.84,2.84,2.84,0,0,0,.88,1.8,5.76,5.76,0,0,0,1.23-.88A1.38,1.38,0,0,0,126.59,47.5Z" transform="translate(-4.38 -4.46)"/><path class="cls-1" d="M94.93,72.24a3.52,3.52,0,0,1-1.32,2.9,5.78,5.78,0,0,1-3.68,1,8.67,8.67,0,0,1-3.84-.81V72.7a16,16,0,0,0,2.32.87,7.29,7.29,0,0,0,1.74.25,2.46,2.46,0,0,0,1.45-.36,1.25,1.25,0,0,0,.51-1.08,1.17,1.17,0,0,0-.22-.71,2.44,2.44,0,0,0-.66-.6,16.72,16.72,0,0,0-1.76-.92A8.36,8.36,0,0,1,87.61,69a4.24,4.24,0,0,1-1-1.25,3.54,3.54,0,0,1-.37-1.67,3.49,3.49,0,0,1,1.22-2.83,5,5,0,0,1,3.37-1,7.87,7.87,0,0,1,2,.25,14.1,14.1,0,0,1,2,.7l-.92,2.24a13.94,13.94,0,0,0-1.8-.62,5.64,5.64,0,0,0-1.39-.18,1.88,1.88,0,0,0-1.26.38,1.27,1.27,0,0,0-.43,1,1.3,1.3,0,0,0,.17.66,2.1,2.1,0,0,0,.56.55,20.13,20.13,0,0,0,1.83,1A7.11,7.11,0,0,1,94.22,70,3.57,3.57,0,0,1,94.93,72.24Z" transform="translate(-4.38 -4.46)"/><path class="cls-1" d="M109.42,76h-3.65l-5.9-10.26h-.09q.18,2.72.18,3.87V76H97.39V62.44H101l5.89,10.16H107c-.09-1.76-.14-3-.14-3.74V62.44h2.59Z" transform="translate(-4.38 -4.46)"/><path class="cls-1" d="M125.15,69.21a7.36,7.36,0,0,1-1.67,5.17,7.24,7.24,0,0,1-9.58,0,7.38,7.38,0,0,1-1.67-5.19A7.26,7.26,0,0,1,113.91,64a6.25,6.25,0,0,1,4.8-1.79,6.17,6.17,0,0,1,4.78,1.8A7.41,7.41,0,0,1,125.15,69.21Zm-9.9,0a5.64,5.64,0,0,0,.86,3.42,3,3,0,0,0,2.58,1.15q3.44,0,3.44-4.57t-3.42-4.59a3,3,0,0,0-2.59,1.16A5.65,5.65,0,0,0,115.25,69.21Z" transform="translate(-4.38 -4.46)"/><path class="cls-1" d="M141.17,76h-3.28l-1.83-7.13c-.07-.25-.19-.78-.35-1.57a14.21,14.21,0,0,1-.28-1.6c0,.33-.13.87-.28,1.61s-.27,1.27-.35,1.58L133,76h-3.27l-3.46-13.57h2.83l1.73,7.41c.31,1.36.53,2.55.66,3.55,0-.35.13-.9.26-1.64s.26-1.31.37-1.72l2-7.6h2.72l2,7.6q.14.51.33,1.56t.3,1.8c.06-.48.16-1.08.29-1.8s.26-1.31.37-1.75l1.73-7.41h2.83Z" transform="translate(-4.38 -4.46)"/><path class="cls-1" d="M146.33,62.44h4.22a8.11,8.11,0,0,1,4.19.83,2.84,2.84,0,0,1,1.3,2.61,3.28,3.28,0,0,1-.57,2,2.31,2.31,0,0,1-1.52.94v.09A3,3,0,0,1,155.81,70a3.92,3.92,0,0,1-.77,5,5.81,5.81,0,0,1-3.64,1h-5.07Zm2.87,5.38h1.67a3.08,3.08,0,0,0,1.7-.37,1.36,1.36,0,0,0,.52-1.19,1.19,1.19,0,0,0-.57-1.12,3.62,3.62,0,0,0-1.81-.34H149.2Zm0,2.28v3.53h1.88a2.8,2.8,0,0,0,1.75-.45,1.68,1.68,0,0,0,.57-1.39c0-1.13-.81-1.69-2.42-1.69Z" transform="translate(-4.38 -4.46)"/><path class="cls-1" d="M171.4,69.21a7.31,7.31,0,0,1-1.67,5.17,7.23,7.23,0,0,1-9.57,0,7.38,7.38,0,0,1-1.67-5.19A7.31,7.31,0,0,1,160.16,64a6.28,6.28,0,0,1,4.8-1.79,6.19,6.19,0,0,1,4.79,1.8A7.41,7.41,0,0,1,171.4,69.21Zm-9.9,0a5.64,5.64,0,0,0,.87,3.42A3,3,0,0,0,165,73.78q3.44,0,3.44-4.57T165,64.62a3,3,0,0,0-2.58,1.16A5.58,5.58,0,0,0,161.5,69.21Z" transform="translate(-4.38 -4.46)"/><path class="cls-1" d="M182.52,76l-1-3.23h-4.94l-1,3.23h-3.1l4.78-13.62h3.52L185.62,76Zm-1.67-5.64-1.54-5c-.11-.38-.19-.68-.24-.91-.21.8-.79,2.75-1.76,5.88Z" transform="translate(-4.38 -4.46)"/><path class="cls-1" d="M190.2,70.8V76h-2.88V62.44h4a6.78,6.78,0,0,1,4.09,1,4,4,0,0,1,.66,5.19,4.3,4.3,0,0,1-1.86,1.46q3.06,4.58,4,5.91H195l-3.24-5.21Zm0-2.34h.93a3.56,3.56,0,0,0,2-.45,1.63,1.63,0,0,0,.65-1.43,1.48,1.48,0,0,0-.66-1.37,4.08,4.08,0,0,0-2.06-.41h-.87Z" transform="translate(-4.38 -4.46)"/><path class="cls-1" d="M211.12,69.1a6.69,6.69,0,0,1-1.91,5.13,7.79,7.79,0,0,1-5.5,1.78h-3.84V62.44h4.25a7.16,7.16,0,0,1,5.16,1.76A6.43,6.43,0,0,1,211.12,69.1Zm-3,.07c0-2.91-1.28-4.37-3.86-4.37h-1.53v8.83H204Q208.14,73.63,208.13,69.17Z" transform="translate(-4.38 -4.46)"/><path class="cls-1" d="M88.11,94H86.79V82.59h6.36v1.18h-5v4.17h4.74v1.18H88.11Z" transform="translate(-4.38 -4.46)"/><path class="cls-1" d="M102.22,94l-1.42-3.64H96.22L94.82,94H93.47L98,82.54h1.12L103.6,94Zm-1.83-4.83-1.33-3.54c-.17-.45-.35-1-.53-1.65A17,17,0,0,1,98,85.64l-1.35,3.54Z" transform="translate(-4.38 -4.46)"/><path class="cls-1" d="M106.5,89.26V94h-1.33V82.59h3.13a4.93,4.93,0,0,1,3.11.8,2.91,2.91,0,0,1,1,2.42,3,3,0,0,1-2.3,3.06L113.22,94h-1.57l-2.77-4.75Zm0-1.14h1.82a3.15,3.15,0,0,0,2.06-.56,2.07,2.07,0,0,0,.66-1.68,1.92,1.92,0,0,0-.67-1.63,3.66,3.66,0,0,0-2.15-.5H106.5Z" transform="translate(-4.38 -4.46)"/><path class="cls-1" d="M129.19,94h-1.32l-2.3-7.65c-.11-.34-.23-.77-.37-1.28a7.79,7.79,0,0,1-.21-.93,17.1,17.1,0,0,1-.55,2.26L122.21,94H120.9l-3-11.42h1.4l1.81,7a25.06,25.06,0,0,1,.54,2.69,20,20,0,0,1,.63-2.8l2.05-6.94h1.4l2.15,7a21,21,0,0,1,.63,2.74,23.42,23.42,0,0,1,.57-2.71l1.79-7h1.41Z" transform="translate(-4.38 -4.46)"/><path class="cls-1" d="M140.4,94H134V82.59h6.37v1.18h-5v3.67h4.73v1.18h-4.73v4.2h5Z" transform="translate(-4.38 -4.46)"/><path class="cls-1" d="M149.37,91a2.8,2.8,0,0,1-1.09,2.35,4.76,4.76,0,0,1-3,.84,7.38,7.38,0,0,1-3.12-.52V92.36a8.08,8.08,0,0,0,1.53.47,8.38,8.38,0,0,0,1.64.17,3.37,3.37,0,0,0,2-.5,1.69,1.69,0,0,0,.67-1.41,1.79,1.79,0,0,0-.24-1,2.26,2.26,0,0,0-.8-.7,12.45,12.45,0,0,0-1.7-.73A5.38,5.38,0,0,1,143,87.34a3,3,0,0,1-.69-2,2.52,2.52,0,0,1,1-2.1,4.11,4.11,0,0,1,2.62-.78,7.64,7.64,0,0,1,3.13.63l-.41,1.15a7.17,7.17,0,0,0-2.75-.59,2.69,2.69,0,0,0-1.65.45,1.5,1.5,0,0,0-.59,1.26,1.86,1.86,0,0,0,.22,1,2,2,0,0,0,.73.7,9.92,9.92,0,0,0,1.59.7,6.22,6.22,0,0,1,2.48,1.37A2.72,2.72,0,0,1,149.37,91Z" transform="translate(-4.38 -4.46)"/><path class="cls-1" d="M155.22,94H153.9V83.77h-3.62V82.59h8.56v1.18h-3.62Z" transform="translate(-4.38 -4.46)"/><path class="cls-1" d="M166,94h-1.32V82.59h6.36v1.18h-5v4.17h4.74v1.18H166Z" transform="translate(-4.38 -4.46)"/><path class="cls-1" d="M174.3,89.26V94H173V82.59h3.14a4.89,4.89,0,0,1,3.1.8,2.92,2.92,0,0,1,1,2.42,3,3,0,0,1-2.3,3.06L181,94h-1.57l-2.77-4.75Zm0-1.14h1.82a3.13,3.13,0,0,0,2.06-.56,2.07,2.07,0,0,0,.66-1.68,1.89,1.89,0,0,0-.67-1.63,3.63,3.63,0,0,0-2.14-.5H174.3Z" transform="translate(-4.38 -4.46)"/><path class="cls-1" d="M189.23,94h-6.37V82.59h6.37v1.18h-5v3.67h4.74v1.18h-4.74v4.2h5Z" transform="translate(-4.38 -4.46)"/><path class="cls-1" d="M198.13,94h-6.37V82.59h6.37v1.18h-5v3.67h4.74v1.18h-4.74v4.2h5Z" transform="translate(-4.38 -4.46)"/><path class="cls-1" d="M207.11,91a2.8,2.8,0,0,1-1.1,2.35,4.76,4.76,0,0,1-3,.84,7.42,7.42,0,0,1-3.12-.52V92.36a8.56,8.56,0,0,0,1.53.47,8.38,8.38,0,0,0,1.64.17,3.35,3.35,0,0,0,2-.5,1.66,1.66,0,0,0,.67-1.41,1.79,1.79,0,0,0-.24-1,2.21,2.21,0,0,0-.79-.7,12.45,12.45,0,0,0-1.7-.73,5.49,5.49,0,0,1-2.28-1.35,3,3,0,0,1-.68-2,2.53,2.53,0,0,1,1-2.1,4.13,4.13,0,0,1,2.62-.78,7.73,7.73,0,0,1,3.14.63l-.42,1.15a7.17,7.17,0,0,0-2.75-.59,2.69,2.69,0,0,0-1.65.45,1.5,1.5,0,0,0-.59,1.26,1.86,1.86,0,0,0,.22,1,2,2,0,0,0,.74.7,9.16,9.16,0,0,0,1.59.7,6.17,6.17,0,0,1,2.47,1.37A2.72,2.72,0,0,1,207.11,91Z" transform="translate(-4.38 -4.46)"/><path class="cls-1" d="M213,94h-1.33V83.77H208V82.59h8.57v1.18H213Z" transform="translate(-4.38 -4.46)"/><path class="cls-1" d="M221.2,88.3l3.05-5.71h1.43l-3.81,7V94h-1.34V89.64l-3.81-7h1.46Z" transform="translate(-4.38 -4.46)"/><path class="cls-1" d="M227.25,94V82.59h1.33V92.8h5V94Z" transform="translate(-4.38 -4.46)"/><path class="cls-1" d="M241.93,94h-6.37V82.59h6.37v1.18h-5v3.67h4.73v1.18h-4.73v4.2h5Z" transform="translate(-4.38 -4.46)"/><path class="cls-2" d="M74.9,96.31l-8.44-9.82c-.36-.42-.72-1.09-1.15-1.15-3.75-.53-5.08-3.8-7.1-6.2q-5.15-6.12-10-12.49c-1-1.27-1.71-1.16-2.88-.43-3.43,2.13-7,4.1-10.34,6.31-1.76,1.15-2.9.75-4-.75S28.44,68.7,27.39,67c-.87-1.39-1.62-1.2-2.84-.49C18,70.36,4.43,78.1,4.43,78.1S4.48,56,4.41,46c0-1.73.25-2.42,2.27-2.41,22,.08,44,.05,66.05.06,1,0,2.22-.53,2.21,1.44C74.88,62,74.9,78.84,74.9,96.31Z" transform="translate(-4.38 -4.46)"/><polygon class="cls-3" points="57.95 99.13 0 84.62 0 77.92 70.61 95.78 57.95 99.13"/><polygon class="cls-3" points="36.28 104.9 0 95.97 0 89.27 48.37 101.64 36.28 104.9"/><path class="cls-4" d="M47.94,71.93c2.19,2.66,3.94,4.73,5.65,6.85,2.33,2.89,4.63,5.81,6.94,8.72.24.3.48.82.77.86,3.65.49,4.84,3.73,7.31,6.29-3-.06-5.22-1.31-7.64-1.51-6.53-.56-9.14-5.83-12.58-10.14a3,3,0,0,1-.45-2Z" transform="translate(-4.38 -4.46)"/><path class="cls-4" d="M41.7,88c-3.17-.8-6-1.56-8.8-2.2A4.57,4.57,0,0,1,30,83.65c-2.26-3.43-4.15-7-2.79-11.28,1.05.53,1.59,1.79,2.32,2.81.89,1.23,1.76,2.2,3.46,1.9.81-.14,1.24.43,1.68,1.06C36.87,81.36,39.19,84.54,41.7,88Z" transform="translate(-4.38 -4.46)"/><path class="cls-5" d="M39.58,5V25.58q0,6.72-4.15,10.41t-12,3.7c-5.08,0-9-1.2-11.73-3.59S7.64,30.27,7.64,25.79V5H17.77V25.06q0,3.63,1.48,5.27A5.56,5.56,0,0,0,23.62,32a5.61,5.61,0,0,0,4.48-1.62Q29.5,28.72,29.49,25V5Z" transform="translate(-4.38 -4.46)"/><path class="cls-5" d="M71.82,28.81a9.53,9.53,0,0,1-1.76,5.66A11.31,11.31,0,0,1,65,38.31a20.19,20.19,0,0,1-7.79,1.38,34.22,34.22,0,0,1-6.25-.48,24.94,24.94,0,0,1-5.26-1.68V29.28a31.44,31.44,0,0,0,6,2.12,24,24,0,0,0,5.72.76,6,6,0,0,0,3.29-.71,2.15,2.15,0,0,0,1.05-1.84,1.91,1.91,0,0,0-.42-1.23A5.06,5.06,0,0,0,60,27.31q-.93-.54-5-2.2a24.21,24.21,0,0,1-5.48-3,9.12,9.12,0,0,1-2.71-3.28,10.18,10.18,0,0,1-.88-4.38,8.5,8.5,0,0,1,3.76-7.38Q53.44,4.46,60,4.46A31.16,31.16,0,0,1,71.82,6.92l-3.09,7.15a24,24,0,0,0-9-2.2,5.07,5.07,0,0,0-2.86.63,1.87,1.87,0,0,0-.89,1.57,2.23,2.23,0,0,0,1.14,1.8,44.78,44.78,0,0,0,6.16,2.91c3.22,1.33,5.45,2.75,6.7,4.28A8.71,8.71,0,0,1,71.82,28.81Z" transform="translate(-4.38 -4.46)"/><polygon class="cls-6" points="13.25 43.5 14.81 48.21 19.78 48.24 15.78 51.18 17.29 55.91 13.25 53.02 9.22 55.91 10.73 51.18 6.73 48.24 11.69 48.21 13.25 43.5"/><polygon class="cls-6" points="33.8 43.5 35.36 48.21 40.32 48.24 36.33 51.18 37.83 55.91 33.8 53.02 29.77 55.91 31.28 51.18 27.28 48.24 32.24 48.21 33.8 43.5"/><polygon class="cls-6" points="54.35 43.5 55.91 48.21 60.87 48.24 56.88 51.18 58.38 55.91 54.35 53.02 50.32 55.91 51.82 51.18 47.83 48.24 52.79 48.21 54.35 43.5"/></svg>