<?xml version="1.0" encoding="utf-8"?>
<!-- Generator: Adobe Illustrator 28.1.0, SVG Export Plug-In . SVG Version: 6.00 Build 0)  -->
<svg version="1.1" id="Layer_1" xmlns="http://www.w3.org/2000/svg" xmlns:xlink="http://www.w3.org/1999/xlink" x="0px" y="0px"
	 viewBox="0 0 230 60" style="enable-background:new 0 0 230 60;" xml:space="preserve">
<g>
	<g>
		<g>
			<path d="M74.2,28.3l1.3-1.1c0.2,0.1,0.6,0.2,1,0.3c0.4-0.2,0.8-0.5,1-0.9c0.2-0.3,0.5-1,0.9-2.1l2.1-5.6
				c-2.4,0.3-3.7,1.1-4.1,2.5c-0.1,0.4-0.1,0.8,0,1.3L75,23.8c0-0.2,0-0.6,0.1-1.1c0.4-1.5,1.3-2.6,2.7-3.4c1.4-0.8,3.2-1.2,5.4-1.2
				c3.6,0,5.1,1.3,4.4,3.8c-0.4,1.5-1.3,2.9-2.6,4.2c-1.8,1.7-4.1,2.5-6.9,2.5C76.9,28.6,75.6,28.5,74.2,28.3z M81.9,18.8l-2.2,5.6
				l-0.3,0.7c-0.3,0.7-0.5,1.1-0.8,1.4c-0.3,0.3-0.8,0.6-1.5,1c1.1,0.2,2.1,0.2,3,0.2c0.9,0,1.6-0.1,2.2-0.4
				c0.5-0.2,1.1-0.7,1.8-1.4c0.9-1,1.5-2,1.8-3.2c0.7-2.6-0.6-4-3.8-4H81.9z"/>
			<path d="M89.9,24.5c1.7-2.1,3-3.1,4.1-3.1c0.3,0,0.5,0.1,0.8,0.2l-1.4,1.1c-0.1-0.1-0.3-0.1-0.6-0.1c-0.5,0-1.2,0.4-2,1.3
				c-0.8,0.8-1.4,1.7-1.7,2.6l-0.7,1.8l-1.2,0.4l0.1-0.2l0.2-0.5l0.2-0.5l1.4-3.6l0.2-0.4c0.1-0.3,0.2-0.5,0.2-0.7
				c0.1-0.3,0-0.5-0.1-0.5c-0.4,0-0.9,0.4-1.5,1.3c-0.1-0.1-0.1-0.2-0.1-0.3c0.1-0.3,0.5-0.7,1.2-1.2c0.7-0.5,1.2-0.8,1.5-0.8
				c0.4,0,0.6,0.3,0.4,0.8c0,0.1-0.1,0.3-0.2,0.5l-0.2,0.5l-0.2,0.6L89.9,24.5z"/>
			<path d="M97.7,26.1c0.1,0.1,0.1,0.2,0.1,0.3c0,0.2-0.3,0.4-0.7,0.8c-1.1,1-2.1,1.5-2.9,1.5c-0.5,0-0.9-0.2-1.1-0.6
				c-0.2-0.4-0.2-0.9-0.1-1.6c0.3-1.1,1-2.3,2.2-3.5c1.2-1.2,2.2-1.7,3-1.7c0.6,0,0.8,0.3,0.6,1c-0.2,0.7-0.7,1.4-1.6,2.1
				c-0.9,0.7-1.9,1.2-3,1.5c-0.2,1.2,0.1,1.8,0.9,1.8C96.1,27.7,96.9,27.2,97.7,26.1z M94.6,25c0.1,0.1,0.3,0.1,0.4,0.1
				c0.6,0,1.2-0.2,1.8-0.6c0.6-0.4,0.9-0.8,1-1.3c0.2-0.6-0.1-0.9-0.6-0.9c-0.4,0-0.9,0.3-1.4,0.8C95.3,23.6,94.9,24.2,94.6,25z"/>
			<path d="M103.7,25.5c-0.8,0.9-1.6,1.7-2.5,2.3c-0.8,0.6-1.5,0.9-2,0.9c-0.7,0-0.9-0.6-0.6-1.7c0.4-1.5,1.3-2.8,2.5-3.9
				c1.3-1.1,2.6-1.7,4-1.7c0.5,0,0.9,0.1,1.3,0.2c0,0.1-0.1,0.1-0.1,0.2l-0.2,0.4c-0.1,0.3-0.2,0.4-0.2,0.5l-1.4,3.3l-0.2,0.5
				c-0.2,0.5-0.3,0.8-0.4,0.9c-0.1,0.2,0,0.3,0.1,0.3c0.4,0,1-0.5,1.7-1.4c0.1,0.1,0.2,0.2,0.1,0.2c0,0.2-0.4,0.5-0.9,1.1
				c-0.8,0.7-1.4,1.1-1.9,1.1c-0.4,0-0.5-0.2-0.4-0.7c0-0.1,0.1-0.4,0.2-0.6l0.2-0.6l0.3-0.7L103.7,25.5z M104.9,22.6
				c-0.4-0.3-0.8-0.4-1.3-0.4c-0.7,0-1.4,0.4-2.1,1.3c-0.7,0.8-1.2,1.9-1.6,3.2c-0.2,0.6-0.1,1,0.3,1c0.4,0,1.1-0.3,1.9-1
				c1.1-0.9,1.9-2,2.4-3.2L104.9,22.6z"/>
			<path d="M112,28.2l-1.2,0.5l0.1-0.2l0.2-0.6l0.2-0.5l1.3-3.4l0.2-0.4c0.1-0.2,0.1-0.4,0.2-0.6c0.1-0.5,0-0.7-0.3-0.7
				c-0.5,0-1.1,0.5-2,1.4c-0.9,0.9-1.5,1.8-1.8,2.7l-0.7,1.8l-1.2,0.5l0.1-0.2l0.2-0.6l0.2-0.5l1.3-3.5l0.2-0.4
				c0.1-0.3,0.2-0.6,0.3-0.7c0.1-0.3,0-0.5-0.1-0.5c-0.4,0-0.9,0.4-1.6,1.3c-0.1-0.1-0.1-0.2-0.1-0.2c0.1-0.3,0.5-0.7,1.1-1.2
				c0.7-0.5,1.2-0.8,1.5-0.8c0.4,0,0.6,0.3,0.4,0.8c0,0.1-0.1,0.3-0.2,0.6l-0.2,0.6l-0.2,0.5l-0.2,0.5L110,24
				c1.6-1.8,2.9-2.7,3.9-2.7c0.5,0,0.6,0.3,0.4,1c0,0.1-0.1,0.4-0.3,0.7l-0.3,0.7l-0.4,0.9c0.7-1,1.5-1.8,2.3-2.4c0.8-0.6,1.5-1,2-1
				c0.5,0,0.7,0.3,0.5,1c-0.1,0.3-0.2,0.6-0.4,1l-1.1,2.8c-0.3,0.6-0.4,1-0.5,1.3c-0.1,0.3,0,0.4,0.1,0.4c0.2,0,0.4-0.1,0.8-0.4
				c0.3-0.3,0.6-0.6,0.9-0.9c0.1,0.1,0.2,0.2,0.1,0.2c-0.1,0.3-0.5,0.7-1.2,1.3c-0.7,0.5-1.2,0.8-1.5,0.8c-0.4,0-0.6-0.3-0.4-0.9
				c0.1-0.4,0.3-0.9,0.6-1.7l0.7-1.8c0-0.1,0.1-0.2,0.2-0.4c0-0.1,0.1-0.2,0.2-0.5c0.1-0.2,0.1-0.4,0.2-0.5c0.1-0.4,0-0.6-0.3-0.6
				c-0.5,0-1.1,0.5-2,1.4c-0.9,0.9-1.5,1.8-1.8,2.7L112,28.2z"/>
			<path d="M117.8,28.3l1.3-0.8c0.3,0.4,0.7,0.6,1.3,0.6c0.7,0,1.2-0.3,1.4-1c0.1-0.4-0.1-0.9-0.6-1.6l-0.3-0.4
				c-0.4-0.7-0.6-1.2-0.5-1.6c0.2-0.6,0.5-1.1,1.1-1.5c0.6-0.4,1.3-0.6,2-0.6c0.4,0,0.8,0.1,1.3,0.2l-1.1,0.8
				c-0.3-0.3-0.7-0.4-1.1-0.4c-0.5,0-0.9,0.2-1,0.7c-0.1,0.3,0.1,0.8,0.5,1.4l0.3,0.5c0.5,0.7,0.7,1.3,0.6,1.7
				c-0.2,0.6-0.6,1.2-1.4,1.7c-0.7,0.5-1.5,0.7-2.3,0.7C118.7,28.7,118.2,28.5,117.8,28.3z"/>
			<path d="M135,21.5l-1.1,1c-0.4-0.2-0.7-0.2-1.1-0.2c-0.7,0-1.3,0.3-1.8,0.8c-0.5,0.6-0.9,1.3-1.2,2.3c-0.2,0.7-0.2,1.2,0,1.6
				c0.2,0.4,0.5,0.6,0.9,0.6c0.8,0,1.5-0.5,2.2-1.5c0.1,0.1,0.1,0.2,0.1,0.3c-0.1,0.4-0.6,0.9-1.3,1.4c-0.8,0.5-1.4,0.8-2,0.8
				c-0.5,0-0.9-0.2-1.1-0.6c-0.2-0.4-0.2-1-0.1-1.6c0.3-1.3,1.1-2.5,2.3-3.5c1.2-1.1,2.3-1.6,3.4-1.6
				C134.4,21.3,134.8,21.4,135,21.5z"/>
			<path d="M135.4,28.7c-1.1,0-1.5-0.7-1.1-2.2c0.3-1.2,1.1-2.3,2.2-3.5c1.2-1.1,2.2-1.7,3.2-1.7c1.1,0,1.5,0.7,1.1,2.2
				c-0.3,1.2-1.1,2.4-2.2,3.5C137.4,28.1,136.3,28.7,135.4,28.7z M136.5,27.8c0.6,0,1.1-0.3,1.7-1c0.6-0.6,1-1.4,1.2-2.4
				c0.4-1.6,0.1-2.3-0.8-2.3c-0.6,0-1.1,0.3-1.7,1c-0.6,0.6-1,1.4-1.2,2.4C135.3,27.1,135.5,27.8,136.5,27.8z"/>
			<path d="M146.3,28.2l-1.2,0.5l0.1-0.2l0.2-0.6l0.2-0.5l1.3-3.4l0.2-0.4c0.1-0.2,0.1-0.4,0.2-0.6c0.1-0.5,0-0.7-0.2-0.7
				c-0.5,0-1.1,0.5-2,1.4c-0.9,0.9-1.5,1.8-1.8,2.7l-0.7,1.8l-1.2,0.5l0.1-0.2l0.2-0.6l0.2-0.5l1.3-3.5l0.2-0.4
				c0.1-0.3,0.2-0.6,0.3-0.7c0.1-0.3,0-0.5-0.1-0.5c-0.4,0-0.9,0.4-1.6,1.3c-0.1-0.1-0.1-0.2-0.1-0.2c0.1-0.3,0.5-0.7,1.1-1.2
				c0.7-0.5,1.2-0.8,1.5-0.8c0.4,0,0.6,0.3,0.4,0.8c0,0.1-0.1,0.3-0.2,0.6l-0.2,0.6l-0.2,0.5l-0.2,0.5l0.3-0.3
				c1.6-1.8,2.9-2.7,3.9-2.7c0.5,0,0.6,0.3,0.4,1c0,0.1-0.1,0.4-0.3,0.7l-0.3,0.7l-0.4,0.9c0.7-1,1.5-1.8,2.3-2.4c0.8-0.6,1.5-1,2-1
				c0.5,0,0.7,0.3,0.5,1c-0.1,0.3-0.2,0.6-0.4,1l-1.1,2.8c-0.3,0.6-0.4,1-0.5,1.3c-0.1,0.3,0,0.4,0.1,0.4c0.2,0,0.4-0.1,0.8-0.4
				c0.3-0.3,0.6-0.6,0.9-0.9c0.1,0.1,0.2,0.2,0.1,0.2c-0.1,0.3-0.5,0.7-1.2,1.3c-0.7,0.5-1.2,0.8-1.5,0.8c-0.4,0-0.6-0.3-0.4-0.9
				c0.1-0.4,0.3-0.9,0.6-1.7l0.7-1.8c0-0.1,0.1-0.2,0.2-0.4c0-0.1,0.1-0.2,0.2-0.5c0.1-0.2,0.1-0.4,0.2-0.5c0.1-0.4,0-0.6-0.2-0.6
				c-0.5,0-1.1,0.5-2,1.4c-0.9,0.9-1.5,1.8-1.8,2.7L146.3,28.2z"/>
			<path d="M157.6,26.1c0.1,0.1,0.1,0.2,0.1,0.3c0,0.2-0.3,0.4-0.7,0.8c-1.1,1-2.1,1.5-2.9,1.5c-0.5,0-0.9-0.2-1.1-0.6
				c-0.2-0.4-0.2-0.9-0.1-1.6c0.3-1.1,1-2.3,2.2-3.5c1.2-1.2,2.2-1.7,3-1.7c0.6,0,0.8,0.3,0.6,1c-0.2,0.7-0.7,1.4-1.6,2.1
				c-0.9,0.7-1.9,1.2-3,1.5c-0.2,1.2,0.1,1.8,0.9,1.8C156,27.7,156.8,27.2,157.6,26.1z M154.5,25c0.1,0.1,0.3,0.1,0.4,0.1
				c0.6,0,1.2-0.2,1.8-0.6c0.6-0.4,0.9-0.8,1-1.3c0.2-0.6-0.1-0.9-0.6-0.9c-0.4,0-0.9,0.3-1.4,0.8C155.2,23.6,154.8,24.2,154.5,25z"
				/>
			<path d="M166.4,22.4l-1.3,3.3c-0.2,0.6-0.4,1-0.5,1.3c-0.1,0.6,0,0.8,0.4,0.8c0.4,0,0.9-0.3,1.6-1c0,0.1,0.1,0.2,0,0.3
				c-0.1,0.3-0.4,0.6-1,1c-0.6,0.4-1.1,0.6-1.4,0.6c-0.7,0-0.9-0.5-0.7-1.4c0.1-0.3,0.3-0.9,0.6-1.6l1.3-3.3h-1.6l1.1-0.9h0.8
				l0.5-1.4l1.2-0.4l-0.7,1.7h3.2l-1.1,0.9H166.4z"/>
			<path d="M171.4,24.5c1.7-2.1,3-3.1,4.1-3.1c0.3,0,0.5,0.1,0.8,0.2l-1.4,1.1c-0.1-0.1-0.3-0.1-0.6-0.1c-0.5,0-1.2,0.4-2,1.3
				c-0.8,0.8-1.4,1.7-1.7,2.6l-0.7,1.8l-1.2,0.4l0.1-0.2l0.2-0.5l0.2-0.5l1.4-3.6l0.2-0.4c0.1-0.3,0.2-0.5,0.2-0.7
				c0.1-0.3,0-0.5-0.1-0.5c-0.4,0-0.9,0.4-1.5,1.3c-0.1-0.1-0.1-0.2-0.1-0.3c0.1-0.3,0.5-0.7,1.2-1.2c0.7-0.5,1.2-0.8,1.5-0.8
				c0.4,0,0.6,0.3,0.4,0.8c0,0.1-0.1,0.3-0.2,0.5l-0.2,0.5l-0.2,0.6L171.4,24.5z"/>
			<path d="M180.4,25.5c-0.8,0.9-1.6,1.6-2.5,2.2c-0.9,0.6-1.5,0.9-2,0.9c-0.5,0-0.6-0.3-0.5-1c0.1-0.2,0.2-0.6,0.4-1.2l0.9-2.5
				c0,0,0.1-0.2,0.2-0.4l0.2-0.5c0.1-0.1,0.1-0.3,0.1-0.4c0.1-0.3,0-0.4-0.1-0.4c-0.4,0-0.9,0.4-1.6,1.3c-0.1-0.1-0.1-0.2-0.1-0.2
				c0.1-0.3,0.5-0.7,1.1-1.2c0.7-0.5,1.2-0.8,1.5-0.8c0.4,0,0.5,0.3,0.4,0.9c0,0.1-0.1,0.3-0.2,0.5l-0.2,0.6l-0.2,0.6l-0.8,2.1
				c-0.1,0.4-0.3,0.7-0.4,1.1c-0.1,0.3,0,0.5,0.2,0.5c0.6,0,1.3-0.5,2.3-1.4c1-0.9,1.6-1.8,2-2.8l0.7-1.8l1.3-0.4
				c-0.3,0.6-0.5,1.1-0.7,1.5l-1.3,3.1c-0.1,0.2-0.1,0.4-0.2,0.5l-0.2,0.4c-0.1,0.3-0.2,0.4-0.2,0.5c-0.1,0.2,0,0.3,0.1,0.3
				c0.4,0,1-0.5,1.7-1.4c0.1,0.1,0.2,0.2,0.1,0.2c0,0.2-0.4,0.5-0.9,1.1c-0.8,0.7-1.4,1.1-1.9,1.1c-0.4,0-0.5-0.2-0.3-0.7
				c0-0.2,0.1-0.4,0.2-0.6l0.2-0.6c0.1-0.3,0.2-0.5,0.3-0.7L180.4,25.5z"/>
			<path d="M188,26.1c0.1,0.1,0.1,0.2,0.1,0.3c0,0.2-0.3,0.4-0.7,0.8c-1.1,1-2.1,1.5-2.9,1.5c-0.5,0-0.9-0.2-1.1-0.6
				c-0.2-0.4-0.2-0.9-0.1-1.6c0.3-1.1,1-2.3,2.2-3.5c1.2-1.2,2.2-1.7,3-1.7c0.6,0,0.8,0.3,0.6,1c-0.2,0.7-0.7,1.4-1.6,2.1
				c-0.9,0.7-1.9,1.2-3,1.5c-0.2,1.2,0.1,1.8,0.9,1.8C186.3,27.7,187.2,27.2,188,26.1z M184.8,25c0.1,0.1,0.3,0.1,0.4,0.1
				c0.6,0,1.2-0.2,1.8-0.6c0.6-0.4,0.9-0.8,1-1.3c0.2-0.6-0.1-0.9-0.6-0.9c-0.4,0-0.9,0.3-1.4,0.8C185.5,23.6,185.1,24.2,184.8,25z"
				/>
			<path d="M194.3,28.7c0.3-1.2,0.5-2.3,0.6-3.3l0.2-1.6c0.1-0.9,0-1.4-0.3-1.4c-0.4,0-0.7,0.3-1.1,1.1c-0.1,0-0.2-0.1-0.2-0.3
				c0.1-0.4,0.4-0.8,0.9-1.2c0.5-0.4,0.9-0.7,1.2-0.7c0.4,0,0.7,0.4,0.7,1.1c0.1,0.7-0.1,2-0.4,3.7l-0.1,0.5
				c1.3-1.6,2.4-3.1,3.1-4.4l1.1-0.9c-0.1,0.7-0.2,1.2-0.2,1.6l-0.1,1.2l-0.1,0.8l-0.2,1.9l0.3-0.3c1.7-1.9,2.6-3.1,2.7-3.6
				c0.1-0.3,0-0.5-0.3-0.7l1.1-0.9c0.3,0.2,0.4,0.5,0.3,0.8c-0.1,0.4-0.6,1.1-1.4,2l-0.7,0.8l-0.8,1c-0.6,0.7-1.1,1.3-1.4,1.9
				l-1.1,0.9c0.2-0.9,0.3-1.8,0.4-2.8l0.1-0.7l0.1-1.8l-0.5,0.6c-1,1.2-1.8,2.4-2.6,3.6L194.3,28.7z"/>
			<path d="M206.6,26.3c0.1,0.1,0.2,0.2,0.1,0.2c0,0.2-0.4,0.5-0.9,1.1c-0.8,0.7-1.4,1.1-1.9,1.1c-0.4,0-0.5-0.2-0.3-0.7
				c0.1-0.2,0.3-0.8,0.7-1.9l0.8-2l0.2-0.5l0.2-0.4c0.1-0.2,0.1-0.3,0.2-0.4c0.1-0.3,0-0.4-0.1-0.4c-0.4,0-0.9,0.4-1.6,1.3
				c-0.1-0.1-0.1-0.2-0.1-0.3c0.1-0.3,0.5-0.7,1.2-1.2c0.7-0.5,1.2-0.8,1.6-0.8c0.4,0,0.5,0.3,0.4,0.8c0,0.1-0.1,0.3-0.2,0.6
				l-0.2,0.5c0,0-0.1,0.2-0.2,0.6l-0.9,2.1l-0.2,0.5c-0.2,0.5-0.3,0.8-0.4,0.9c-0.1,0.2,0,0.3,0.1,0.3
				C205.3,27.7,205.9,27.2,206.6,26.3z M206.7,20.4l1-1.5c0.6-0.2,1.2-0.5,1.6-1c0,0.1,0,0.1,0,0.2
				C209.2,18.7,208.3,19.5,206.7,20.4z"/>
			<path d="M210.9,22.4l-1.3,3.3c-0.2,0.6-0.4,1-0.4,1.3c-0.1,0.6,0,0.8,0.4,0.8c0.4,0,0.9-0.3,1.6-1c0.1,0.1,0.1,0.2,0,0.3
				c-0.1,0.3-0.4,0.6-1,1c-0.6,0.4-1.1,0.6-1.4,0.6c-0.7,0-0.9-0.5-0.7-1.4c0.1-0.3,0.3-0.9,0.6-1.6l1.3-3.3h-1.6l1.1-0.9h0.8
				l0.5-1.4l1.2-0.4l-0.7,1.7h3.2l-1.1,0.9H210.9z"/>
			<path d="M215.4,24.4c0.8-0.9,1.7-1.6,2.5-2.2c0.9-0.6,1.5-0.9,2-0.9c0.5,0,0.6,0.3,0.5,1c-0.1,0.2-0.2,0.5-0.3,0.9l-1.1,2.8
				c-0.2,0.6-0.4,1-0.5,1.3c-0.1,0.3,0,0.4,0.1,0.4c0.3,0,0.9-0.5,1.6-1.4c0.1,0.1,0.1,0.2,0.1,0.2c-0.1,0.3-0.5,0.8-1.2,1.3
				c-0.7,0.5-1.2,0.8-1.6,0.8c-0.4,0-0.5-0.3-0.4-0.8c0.1-0.4,0.3-1,0.6-1.7l0.7-1.8c0.2-0.6,0.4-1.1,0.5-1.4c0.1-0.4,0-0.6-0.3-0.6
				c-0.6,0-1.4,0.4-2.3,1.3c-0.9,0.9-1.5,1.8-1.9,2.8l-0.7,1.8l-1.2,0.5l0.1-0.2l0.2-0.6l0.2-0.5l2.5-6.6c0.6-1.5,1.5-2.9,2.8-4
				c1.3-1.1,2.5-1.6,3.7-1.6c0.2,0,0.5,0,0.7,0.1l-1.4,1.1c-0.3-0.1-0.5-0.1-0.8-0.1c-1.5,0-2.7,1.2-3.5,3.5L215.4,24.4z"/>
		</g>
		<g>
			<g>
				<path d="M5.1,54.6c1.5,2.1,3,2.6,3,2.6c1.7,1.1,3.6,1.1,3.6,1.1l0.5-0.1c0.9-0.2,1-1.6,1-1.6l0.2-1.3l0.3-0.7
					c0.5-0.9,1.4-1.6,1.4-1.6c-2.1,0.4-3.4-1.1-4.2-2.2c-5.9-9.8,7.1-38.6,7.1-38.6C0.2,38.8,1.1,49.9,5.1,54.6L5.1,54.6z"/>
				<path d="M14.8,3.6c0,0,20.3,23.8,18.9,32c2.1,2.5,8.9,6.9,6.6,9.2l0,0c-0.3,0.3-0.7,0.7-1.1,1.1c-1.5,1-4.8,3.4-4.8,5
					c0,0-7,1.3-7-7.7c0-1.5,0-2.2,0-2.6v-1c0,0-0.1,0.3-0.1,0.5c0,0,0,0,0,0c0,0,0,0,0,0c0,0,0,0,0,0.1c0,0,0,0,0,0l0,0
					c-0.3,0.7-1,1.4-1.7,0.4c-0.1-0.2-0.2-0.4-0.3-0.6l0,0c-0.3-0.7-0.5-1.8-0.5-2.4c-0.1-1.3,0-3.3,0.7-5.9c0,0-0.1,0.2-0.2,0.6
					c0,0,0,0,0,0l0.2-0.6L25.3,32c0-0.1,0.1-0.1,0.1-0.1c0,0-0.1,0.1-0.1,0.3l-1.9,4c0,0-1.3,4.6-1.5,5.3v0c-0.1,0.5-0.2,1-0.3,1.5
					l0,0.2c-0.1,0.2-0.1,0.4-0.1,0.4l-0.1,0.9l-0.2,1.4l-0.1,2.6c0,0,0.9,3.9,4.7,7.1c1.1,1,2.4,1.9,3.9,2.4c0.1,0,0.2,0.1,0.3,0.1
					l0,0c0.2,0.1,0.5,0.1,0.7,0.2c0.7,0.2,2.9-0.6,2.9-0.6c0.3-0.4,3.3-0.9,3.3-0.9l0,0c2.1-0.4,4.2-0.6,5.5-0.1c0,0,1.6-8,9-9
					C51.3,47.6,33.3,16.8,14.8,3.6L14.8,3.6z"/>
			</g>
			<g>
				<polygon points="164.4,52.2 164.4,50.4 166.6,50.4 166.6,52.2 164.4,52.2 				"/>
				<path d="M99.5,49.2v-4.1c0-1.8-0.6-2.9-2.7-2.9h-8c-2.1,0-2.7,1.1-2.7,2.9v4.1c0,1.8,0.6,2.8,2.7,2.8h8
					C98.9,52.1,99.5,51,99.5,49.2L99.5,49.2z M94.6,49.4c0,0.5-0.2,0.7-0.7,0.7h-2.1c-0.5,0-0.7-0.2-0.7-0.7v-4.5
					c0-0.5,0.2-0.7,0.7-0.7h2.1c0.5,0,0.7,0.2,0.7,0.7V49.4L94.6,49.4z"/>
				<path d="M109.9,52.1v-7.2c0-0.4-0.2-0.7-0.7-0.7h-2c-0.4,0-0.7,0.2-0.7,0.7v7.2h-4.9v-9.8h4.7v1h0.1c0.3-0.6,0.7-1,1.3-1h4
					c2.3,0,3.3,1.4,3.3,3.5v6.3H109.9L109.9,52.1z"/>
				<path d="M129.8,48.2V45c0-1.8-0.7-2.8-2.7-2.8h-7.7c-2.1,0-2.7,1-2.7,2.8v4.1c0,2,0.7,2.9,2.7,2.9h10.3v-1.9h-7
					c-0.7,0-1-0.4-1-1v-0.9H129.8L129.8,48.2z M125,46.3h-3.4v-1.4c0-0.6,0.2-0.8,0.7-0.8h1.9c0.6,0,0.8,0.2,0.8,0.8V46.3L125,46.3z
					"/>
				<path d="M191.6,49.8v-4.9c0-1.8-0.6-2.4-2.5-2.4H183c-1.8,0-2.4,0.7-2.4,2.4v4.9c0,1.8,0.6,2.5,2.4,2.5h6.1
					C191,52.2,191.6,51.5,191.6,49.8L191.6,49.8z M189.8,50.4c0,0.7-0.2,0.9-0.8,0.9h-5.8c-0.6,0-0.9-0.2-0.9-0.9v-6.1
					c0-0.7,0.2-0.9,0.9-0.9h5.8c0.6,0,0.8,0.2,0.8,0.9V50.4L189.8,50.4z"/>
				<path d="M171.5,43.2h6.9h0.4v-1h-0.4h-7h-0.4c-1.8,0-2.5,0.7-2.5,2.5v4.9c0,1.8,0.6,2.5,2.5,2.5h0.4h7h0.4v-1h-0.4h-6.9
					c-0.6,0-0.9-0.2-0.9-0.9v-6.1C170.6,43.4,170.9,43.2,171.5,43.2L171.5,43.2z"/>
				<path d="M210,52.2v-7.9c0-0.8-0.2-1-0.9-1h-4.8c-0.7,0-0.9,0.2-0.9,0.9v8h-1.8v-7.9c0-0.8-0.2-1-0.9-1H196
					c-0.6,0-0.8,0.2-0.8,0.9v8h-1.8v-9.9h1.8V43h0c0.1-0.5,0.4-0.7,0.9-0.7h5.7c1.1,0,1.3,0.3,1.5,1h0c0.2-0.7,0.5-1,1.4-1h3.9
					c2.3,0,3,1,3,2.8v7.1H210L210,52.2z"/>
				<polygon points="57.8,55.9 57.8,38.1 60.9,38.1 60.9,55.9 57.8,55.9 				"/>
				<path d="M78.2,52.4c-0.1,0.8-0.7,2.1-1.9,2.1h-8.6v-15h7.9c0.1,0.1,2.5,0,2.6,2V52.4L78.2,52.4z M76.7,38.2H67l0,0h-2.2v1.4h0
					v15.1h0V56h0.3l0,0h12.2c2.9,0,3.9-1.4,3.9-4v-9.1C81.2,40.4,80.8,38.2,76.7,38.2L76.7,38.2z"/>
			</g>
		</g>
	</g>
	<g>
		<path d="M131.8,42.3h2.5v7.1c0,0.5,0.1,0.8,0.2,0.9c0.1,0.2,0.4,0.2,0.8,0.2h3.1c0.4,0,0.6-0.1,0.8-0.2c0.1-0.2,0.2-0.5,0.2-0.9
			v-5.7c0-0.5-0.1-1-0.2-1.3h2.5v8.2c0,0.6,0.1,1,0.2,1.3h-2.4c0-0.2-0.1-0.4-0.1-0.5c-0.2,0.2-0.4,0.4-0.6,0.4c-0.1,0-0.3,0-0.7,0
			h-4.1c-1.2,0-1.8-0.8-1.8-2.5v-5.7C132.1,43.1,132,42.7,131.8,42.3z"/>
		<path d="M143.2,51.9l-0.2-1.4c0.5,0.1,1,0.2,1.4,0.2h4.7c0.3,0,0.4-0.1,0.5-0.2c0-0.1,0.1-0.3,0.1-0.6v-1.2c0-0.4-0.2-0.5-0.5-0.5
			h-4c-1.4,0-2.1-0.7-2.1-2.2v-1.1c0-1.6,0.6-2.5,1.8-2.5h6.8l0.2,1.4c-0.5-0.1-1-0.2-1.4-0.2h-4.6c-0.3,0-0.4,0.1-0.5,0.2
			c0,0.1-0.1,0.3-0.1,0.6V45c0,0.4,0.1,0.7,0.2,0.7c0.1,0.1,0.2,0.1,0.4,0.1h4c1.4,0,2.1,0.7,2.1,2.1v1.5c0,1.6-0.6,2.5-1.8,2.5
			H143.2z"/>
		<path d="M153.5,43.8l0.2-1.4h7.1c1.2,0,1.9,0.8,1.9,2.5v5.7c0,0.5,0.1,1,0.2,1.3h-2.2l-0.3-0.6c-0.2,0.4-0.5,0.6-0.9,0.6h-4.7
			c-1.1,0-1.6-0.8-1.6-2.3v-1.9c0-1.5,0.5-2.3,1.6-2.3h4.8c0.3,0,0.5-0.1,0.6-0.2c0.1-0.1,0.1-0.3,0.1-0.6v-0.2
			c0-0.4-0.1-0.6-0.2-0.7c-0.1-0.1-0.2-0.1-0.5-0.1h-4.8C154.4,43.6,154,43.7,153.5,43.8z M160.3,46.7h-4.2c-0.3,0-0.5,0.1-0.6,0.3
			c-0.1,0.1-0.1,0.4-0.1,0.7v1.9c0,0.4,0,0.6,0.1,0.7c0.1,0.2,0.3,0.3,0.6,0.3h3.5c0.3,0,0.5-0.1,0.6-0.3c0.1-0.1,0.1-0.4,0.1-0.7
			V46.7z"/>
	</g>
</g>
</svg>
